<svg xmlns="http://www.w3.org/2000/svg" width="822" height="495.69" viewBox="0 0 822 495.69">
  <g id="Group_352" data-name="Group 352" transform="translate(-0.001)">
    <g id="Group_100" data-name="Group 100" transform="translate(437.138 390.771)">
      <path id="Path_1465" data-name="Path 1465" d="M673.359,628.1a9.7,9.7,0,1,0,9.7,9.7h0A9.7,9.7,0,0,0,673.359,628.1Zm0,15.673a5.971,5.971,0,1,1,5.971-5.971h0A5.971,5.971,0,0,1,673.359,643.773Z" transform="translate(-636.042 -620.636)" fill="#e4e4e4"/>
      <path id="Path_1467" data-name="Path 1467" d="M630.954,619.261h37.317v36.934a4.861,4.861,0,0,1-4.861,4.861H635.815a4.861,4.861,0,0,1-4.861-4.861V619.261Z" transform="translate(-630.954 -619.261)" fill="#e4e4e4"/>
    </g>
    <path id="Path_944" data-name="Path 944" d="M674.915,669.447H114.027a.85.85,0,0,1,0-1.689H674.915a.85.85,0,0,1,0,1.689Z" transform="translate(-113.269 -236.036)" fill="#cacaca"/>
    <path id="Path_629" data-name="Path 629" d="M88.771,494.381,85.3,511.534l64.507,21.544,5.12-25.315Z" transform="translate(-13.272 -76.921)" fill="#ffb6b6"/>
    <path id="Path_630" data-name="Path 630" d="M204.2,646.2l-6.832,33.779h0a21.964,21.964,0,0,1-25.881,17.172l-.7-.141,11.187-55.306Z" transform="translate(-122.219 -231.982)" fill="#2f2e41"/>
    <circle id="Ellipse_276" data-name="Ellipse 276" cx="43.8" cy="43.8" r="43.8" transform="translate(104.798 93.596)" fill="#feb8b8"/>
    <path id="Path_1461" data-name="Path 1461" d="M321.014,270.082a50.586,50.586,0,0,0-28.778-22l-5.377,3.924v-5.1a46.561,46.561,0,0,0-8.7-.507l-4.639,4.2v-3.849a50.1,50.1,0,0,0-34.563,20.559c-10.075,14.524-11.775,34.73-1.866,49.37,2.72-8.36,6.022-16.2,8.742-24.562a24.744,24.744,0,0,0,6.445.031l3.309-7.722.925,7.4c10.258-.893,25.472-2.856,35.2-4.654l-.946-5.674,5.658,4.714c2.979-.686,4.748-1.308,4.6-1.783,7.232,11.66,16.083,19.106,23.315,30.766C327.086,298.755,330.247,285.085,321.014,270.082Z" transform="translate(-131.505 -170.473)" fill="#2f2e41"/>
    <ellipse id="Ellipse_260" data-name="Ellipse 260" cx="112.779" cy="31.546" rx="112.779" ry="31.546" transform="translate(50.07 360.925)" fill="#2f2e41"/>
    <path id="Path_631" data-name="Path 631" d="M366.985,441.228c-1.506-9.061-3.06-18.3-7.271-26.46-2.768-5.347-7.161-10.442-13.084-11.5a12.656,12.656,0,0,1-3.407-.789c-1.735-.836-25.056-14.149-28.763-16.468-3.183-1.991-8.207-5.676-10.74-5.676-2.549-.056-12.321,2.218-50.462-.763a137.764,137.764,0,0,0-18.586,9.138c-.123-.081-39.587,21.111-41.07,21.056-2.808-.118-5.418,1.68-7.027,3.943s-2.364,5.066-3.155,7.776c8.62,19.2,16.506,38.416,25.127,57.612a4.917,4.917,0,0,1,.623,2.364,5.77,5.77,0,0,1-1.072,2.364c-4.227,6.791-4.093,15.332-3.631,23.313s1.034,16.412-2.533,23.566c-.97,1.964-2.232,3.762-3.155,5.726-2.161,4.449-2.942,18.676-1.68,23.455l158.13,4.53C351.829,555.072,366.985,441.228,366.985,441.228Z" transform="translate(-124.184 -191.197)" fill="#6c63ff"/>
    <path id="Path_1421" data-name="Path 1421" d="M167.185,496.467a27.919,27.919,0,0,0-.095,6.885l2.266,32.549c.213,3.068.422,6.128.71,9.188.544,5.939,1.356,11.83,2.364,17.713a3.155,3.155,0,0,0,3.233,3.068c9.977,2.111,20.284,2.027,30.466,1.451,15.537-.867,55.287-2.508,57.715-5.663s1.013-8.258-2.153-10.809-55.622-8.77-55.622-8.77c.513-4.062,2.059-7.887,3.525-11.743,2.635-6.84,5.1-13.9,5.142-21.231s-2.713-15.03-8.715-19.228c-4.937-3.446-11.294-4.085-17.31-3.943-4.377.126-11.941-.923-15.939.789C169.61,488.116,167.776,493.369,167.185,496.467Z" transform="translate(-121.617 -207.714)" fill="#fbbebe"/>
    <path id="Path_1423" data-name="Path 1423" d="M374.945,585.459c2.626-1,5.521-.639,8.336-.26,9.062,1.238,18.258,2.508,26.657,6.128a26.2,26.2,0,0,1,10.363,7.262c2.364,2.989,3.746,6.649,5.055,10.253l3.029,8.3a39.931,39.931,0,0,1,2.642,9.724c.947,9.929-5.844,19.29-14.385,24.449s-18.6,7-28.392,8.92-19.63,4.053-29.386,6.309a118.291,118.291,0,0,1-13.825,2.721c-10.442,1.182-21.357-.56-31.279,2.895-3.943,1.381-7.816,3.431-11.906,4.385a74.1,74.1,0,0,1-8.234,1.254l-18.778,2.145a102.449,102.449,0,0,1-11.514.883c-8.2,0-16.27-1.942-24.235-3.884a6.13,6.13,0,0,1-2.364-.954c-1.262-.994-1.538-2.753-1.719-4.345q-1.207-10.576-2.111-21.175c-.189-2.3-.331-4.779.923-6.711,1.577-2.364,4.653-3.107,7.461-3.565a194.718,194.718,0,0,1,36.027-2.5c4.582-4.582,12.138-4.605,18.14-7.1a53.963,53.963,0,0,0,6.4-3.478,83.6,83.6,0,0,1,35.119-11.1,32.691,32.691,0,0,0,7.185-1.025c4.644-1.443,8.881-5.371,13.652-4.409.591-1.632,1-3.818,2.364-4.937.676-.576,1.514-.962,2.137-1.577,1.317-1.332,1.436-3.431,1.238-5.292s-.639-3.769-.158-5.584a7.724,7.724,0,0,1,.876-1.948C366.617,587.162,370.189,585.064,374.945,585.459Z" transform="translate(-131.863 -223.13)" fill="#2f2e41"/>
    <path id="Path_1430" data-name="Path 1430" d="M180.011,428.975a8.163,8.163,0,0,0-1.75,2.8,132.386,132.386,0,0,0-11.12,45.443,4.542,4.542,0,0,1-.513,2.2,9.643,9.643,0,0,1-1.159,1.254,4.354,4.354,0,0,0,.521,6.135q.107.091.221.174c1.3-2.449,4.416-3.249,7.185-3.462,13.257-1.049,26.207,5.119,39.5,4.654-.938-3.242-2.288-6.357-3.053-9.637-3.384-14.567,5.055-30.427-.118-44.457-1.034-2.808-2.76-5.568-5.481-6.8a14.6,14.6,0,0,0-3.509-.929c-3.36-.607-10.048-3.2-13.3-2.161-1.2.387-1.672,1.514-2.666,2.2C183.266,427.35,181.263,427.7,180.011,428.975Z" transform="translate(-121.231 -198.101)" fill="#6c63ff"/>
    <path id="Path_1421-2" data-name="Path 1421" d="M383.914,486.723c-4-1.712-11.562-.663-15.939-.789-6.016-.142-12.373.5-17.31,3.943-6,4.2-8.762,11.9-8.715,19.228s2.508,14.391,5.142,21.231c1.467,3.856,3.013,7.682,3.525,11.743,0,0-52.456,6.219-55.622,8.77s-4.582,7.654-2.153,10.809,78.205,6.322,88.182,4.211a3.155,3.155,0,0,0,3.233-3.068c1.008-5.883,1.821-11.774,2.364-17.713.288-3.06.5-6.12.71-9.188l2.266-32.549a27.921,27.921,0,0,0-.095-6.885C388.912,493.369,387.078,488.116,383.914,486.723Z" transform="translate(-141.018 -207.714)" fill="#fbbebe"/>
    <path id="Path_1430-2" data-name="Path 1430" d="M381.069,426.386c-.994-.681-1.467-1.809-2.666-2.2-3.248-1.041-9.937,1.554-13.3,2.161a14.6,14.6,0,0,0-3.509.929c-2.721,1.23-4.448,3.991-5.481,6.8-5.174,14.031,3.265,29.89-.118,44.457-.765,3.281-2.114,6.4-3.053,9.637,13.3.465,26.247-5.7,39.5-4.654,2.769.213,5.884,1.013,7.185,3.462q.113-.084.221-.174a4.354,4.354,0,0,0,.521-6.135,9.621,9.621,0,0,1-1.159-1.254,4.543,4.543,0,0,1-.512-2.2,132.386,132.386,0,0,0-11.12-45.443,8.161,8.161,0,0,0-1.75-2.8C384.582,427.7,382.579,427.35,381.069,426.386Z" transform="translate(-150.56 -198.101)" fill="#6c63ff"/>
    <path id="Path_632" data-name="Path 632" d="M286.287,521.739l-2.305,17.347-68.007-.637,3.4-25.6Z" transform="translate(-33.603 -79.794)" fill="#ffb6b6"/>
    <path id="Path_633" data-name="Path 633" d="M428.108,676.721l-7.434,55.934-.708-.094A21.964,21.964,0,0,1,401.088,707.9h0l4.541-34.162Z" transform="translate(-158.021 -236.966)" fill="#2f2e41"/>
    <path id="Path_1427" data-name="Path 1427" d="M211.213,592.764c0,.789-1.238,0-1.351-.844-.867-6.38-5.931-11.641-11.83-14.2s-12.619-2.689-19.007-2.082c-9.661.915-20.506,4.614-24.039,13.644-.836,2.111-8.667,20.908-7.9,25.135,2.059,11.278,9.772,20.924,19.117,27.6s20.266,10.671,31.159,14.271a540.388,540.388,0,0,0,88.331,21.1,84.954,84.954,0,0,1,14.417,2.973c4.164,1.4,8.06,3.486,12.13,5.126,9.464,3.8,19.646,5.158,29.733,6.491,1.719.221,3.691.378,4.961-.789,1.641-1.52,1.1-4.172.631-6.357a34.189,34.189,0,0,1,4.03-24.259c1.689-2.839,3.884-5.75,3.565-9.035-.378-3.833-4.2-6.546-8-7.161s-7.666.292-11.484.789a6.151,6.151,0,0,1-3.9-.387,7.8,7.8,0,0,1-1.53-1.356A17.3,17.3,0,0,0,310.1,640.61c-1.412.789-3.547-.97-5.016-1.632L288.5,631.47c-19.054-8.62-38.2-17.28-58.361-22.737a12.257,12.257,0,0,1-4.5-1.87c-1-.789-1.719-1.858-2.642-2.737-2.011-1.9-4.813-2.658-7.224-4.007S210.661,595.468,211.213,592.764Z" transform="translate(-118.522 -221.657)" fill="#2f2e41"/>
    <circle id="Ellipse_297" data-name="Ellipse 297" cx="11.822" cy="11.822" r="11.822" transform="translate(123.805 336.067)" fill="#fbbebe"/>
    <circle id="Ellipse_298" data-name="Ellipse 298" cx="11.822" cy="11.822" r="11.822" transform="translate(149.982 336.067)" fill="#fbbebe"/>
    <path id="Path_634" data-name="Path 634" d="M360.061,579.233H197.648a7.161,7.161,0,0,1-7.152-7.152V473.55a7.16,7.16,0,0,1,7.152-7.152H360.061a7.16,7.16,0,0,1,7.152,7.152v98.532A7.161,7.161,0,0,1,360.061,579.233Z" transform="translate(-125.285 -204.706)" fill="#3f3d56"/>
    <circle id="Ellipse_263" data-name="Ellipse 263" cx="4.732" cy="4.732" r="4.732" transform="translate(148.443 313.378)" fill="#fff"/>
    <path id="Path_635" data-name="Path 635" d="M941.64,358.782H730.628a4.227,4.227,0,0,1-4.222-4.222V314.789h1.689V354.56a2.536,2.536,0,0,0,2.533,2.533H941.64a2.536,2.536,0,0,0,2.533-2.533V314.51h1.689v40.05a4.227,4.227,0,0,1-4.222,4.223Z" transform="translate(-208.667 -181.074)" fill="#3f3d56"/>
    <rect id="Rectangle_156" data-name="Rectangle 156" width="495.855" height="1.689" transform="translate(313.612 132.87)" fill="#3f3d56"/>
    <circle id="Ellipse_264" data-name="Ellipse 264" cx="14.526" cy="14.526" r="14.526" transform="translate(299.121 119.057)" fill="#6c63ff"/>
    <circle id="Ellipse_266" data-name="Ellipse 266" cx="14.526" cy="14.526" r="14.526" transform="translate(446.729 119.057)" fill="#6c63ff"/>
    <circle id="Ellipse_268" data-name="Ellipse 268" cx="14.526" cy="14.526" r="14.526" transform="translate(546.903 161.751)" fill="#3f3d56"/>
    <circle id="Ellipse_269" data-name="Ellipse 269" cx="14.526" cy="14.526" r="14.526" transform="translate(623.057 161.751)" fill="#ccc"/>
    <circle id="Ellipse_270" data-name="Ellipse 270" cx="14.526" cy="14.526" r="14.526" transform="translate(586.154 119.057)" fill="#6c63ff"/>
    <circle id="Ellipse_271" data-name="Ellipse 271" cx="14.526" cy="14.526" r="14.526" transform="translate(792.95 119.057)" fill="#6c63ff"/>
    <circle id="Ellipse_272" data-name="Ellipse 272" cx="14.526" cy="14.526" r="14.526" transform="translate(721.825 119.057)" fill="#6c63ff"/>
    <rect id="Rectangle_207" data-name="Rectangle 207" width="26.942" height="18.568" transform="translate(547.633)" fill="#3f3d56"/>
    <rect id="Rectangle_208" data-name="Rectangle 208" width="26.942" height="18.568" transform="translate(300.283)" fill="#6c63ff"/>
    <rect id="Rectangle_209" data-name="Rectangle 209" width="26.942" height="18.568" transform="translate(391.54)" fill="#ccc"/>
    <path id="Path_636" data-name="Path 636" d="M537.9,307.226a.844.844,0,0,1-.844-.844V264.7a4.227,4.227,0,0,1,4.222-4.222h41.1a.844.844,0,1,1,0,1.689h-41.1a2.536,2.536,0,0,0-2.533,2.533v41.682A.845.845,0,0,1,537.9,307.226Z" transform="translate(-179.205 -172.667)" fill="#3f3d56"/>
    <circle id="Ellipse_265" data-name="Ellipse 265" cx="14.526" cy="14.526" r="14.526" transform="translate(390.575 73.813)" fill="#e6e6e6"/>
    <path id="Path_637" data-name="Path 637" d="M922.74,306.382h-1.689V264.7a4.227,4.227,0,0,1,4.222-4.222h41.1v1.689h-41.1a2.536,2.536,0,0,0-2.533,2.533Z" transform="translate(-238.952 -172.667)" fill="#3f3d56"/>
    <circle id="Ellipse_265-2" data-name="Ellipse 265" cx="14.526" cy="14.526" r="14.526" transform="translate(714.829 73.813)" fill="#e6e6e6"/>
  </g>
</svg>
