<?xml version="1.0" encoding="UTF-8"?>
<svg xmlns="http://www.w3.org/2000/svg" xmlns:xlink="http://www.w3.org/1999/xlink" width="810pt" height="809.999993pt" viewBox="0 0 810 809.999993" version="1.2">
<defs>
<clipPath id="clip1">
  <path d="M 450 220 L 690 220 L 690 776.554688 L 450 776.554688 Z M 450 220 "/>
</clipPath>
<clipPath id="clip2">
  <path d="M 116 33.351562 L 498 33.351562 L 498 613 L 116 613 Z M 116 33.351562 "/>
</clipPath>
</defs>
<g id="surface1">
<rect x="0" y="0" width="810" height="809.999993" style="fill:rgb(100%,100%,100%);fill-opacity:1;stroke:none;"/>
<rect x="0" y="0" width="810" height="809.999993" style="fill:rgb(100%,100%,100%);fill-opacity:1;stroke:none;"/>
<rect x="0" y="0" width="810" height="809.999993" style="fill:rgb(100%,100%,100%);fill-opacity:1;stroke:none;"/>
<g clip-path="url(#clip1)" clip-rule="nonzero">
<path style=" stroke:none;fill-rule:nonzero;fill:rgb(5.099487%,18.03894%,11.759949%);fill-opacity:1;" d="M 689.324219 221.007812 L 689.324219 220.976562 L 568.757812 220.976562 L 568.757812 460.878906 C 568.757812 566.597656 563.28125 606.855469 546.046875 641.570312 C 529.621094 675.507812 503.753906 697.617188 450.511719 722.855469 L 562.476562 776.554688 C 615.722656 749.734375 641.554688 725.273438 661.140625 686.59375 C 682.273438 646.367188 689.324219 599.792969 689.324219 502.746094 Z M 689.324219 221.007812 "/>
</g>
<g clip-path="url(#clip2)" clip-rule="nonzero">
<path style=" stroke:none;fill-rule:nonzero;fill:rgb(5.099487%,18.03894%,11.759949%);fill-opacity:1;" d="M 497.476562 595.890625 L 497.476562 33.351562 L 376.90625 33.351562 L 376.90625 218.65625 C 358.902344 213.917969 344.019531 212.335938 324.464844 212.335938 C 198.390625 212.335938 116.960938 292.820312 116.960938 416.71875 C 116.960938 545.355469 193.6875 612.429688 340.894531 612.429688 C 390.210938 612.460938 435.628906 607.722656 497.476562 595.890625 Z M 239.878906 414.363281 C 239.878906 348.066406 275.085938 310.191406 336.191406 310.191406 L 336.066406 310.191406 C 336.933594 310.132812 337.769531 310.132812 338.605469 310.132812 C 352.3125 310.132812 365.460938 312.453125 376.875 316.480469 L 376.875 511.382812 C 359.675781 513.769531 348.691406 514.542969 335.386719 514.542969 C 273.570312 514.574219 239.878906 479.085938 239.878906 414.363281 Z M 239.878906 414.363281 "/>
</g>
<path style=" stroke:none;fill-rule:nonzero;fill:rgb(5.099487%,18.03894%,11.759949%);fill-opacity:1;" d="M 568.757812 34 L 689.324219 34 L 689.324219 158.671875 L 568.757812 158.671875 Z M 568.757812 34 "/>
</g>
</svg>
