<svg xmlns="http://www.w3.org/2000/svg" width="185.901" height="327.071" viewBox="0 0 185.901 327.071"><defs><style>.a{fill:#2e62ed;}</style></defs><g transform="translate(0 0)"><path class="a" d="M92.944,0A92.944,92.944,0,0,0,0,92.944v221.1A10.331,10.331,0,0,0,9.319,324.3c.333,0,.641.051,1.006.051H21.239a14.761,14.761,0,1,0,0-29.521h0a14.757,14.757,0,1,0,0-29.515h-.583V231.224a10.331,10.331,0,0,1,20.656,0v64.691a30.648,30.648,0,0,0,1.339,6.937,31.026,31.026,0,0,0,60.573-7.641,10.575,10.575,0,0,1,0-3.363,10.466,10.466,0,0,1,20.7.3,9.965,9.965,0,0,1,0,2.761v21.912a10.331,10.331,0,0,0,20.656,0V222.9a10.335,10.335,0,1,1,20.669,0v56.672a10.325,10.325,0,0,0,20.65,0V92.944A92.944,92.944,0,0,0,92.944,0ZM126.75,69.623c8.327,0,15.084,8.269,15.084,18.466s-6.751,18.466-15.084,18.466-15.078-8.269-15.078-18.466S118.424,69.623,126.75,69.623ZM80.256,119.039c2.363-6.7,28.823-6.719,31.206,0,1.505,4.215-5.483,13.829-15.468,13.912C85.867,133.034,78.783,123.266,80.256,119.039ZM59.119,69.623c8.327,0,15.078,8.269,15.078,18.466s-6.751,18.466-15.078,18.466-15.09-8.269-15.09-18.466,6.777-18.466,15.11-18.466Zm54.443,192.825A31.025,31.025,0,0,0,82.581,291.87v0a11.043,11.043,0,0,1,0,3.2h0a10.447,10.447,0,1,1-20.612-3.42V207.525a10.331,10.331,0,1,1,20.656,0v34.261a10.325,10.325,0,0,0,20.65,0V231.224a10.331,10.331,0,1,1,20.656,0v33.031a31.041,31.041,0,0,0-10.376-1.806Z" transform="translate(0 0)"/><path class="a" d="M278.493,488.5a10.04,10.04,0,0,1-.122,1.595h0a10.447,10.447,0,0,1-20.6.224,10.042,10.042,0,0,1,0-3.644,10.447,10.447,0,0,1,20.6.224h0A10,10,0,0,1,278.493,488.5Z" transform="translate(-92.605 -171.861)"/></g></svg>