<svg id="Group_345" data-name="Group 345" xmlns="http://www.w3.org/2000/svg" width="427.466" height="286.514" viewBox="0 0 427.466 286.514">
  <path id="Path_625" data-name="Path 625" d="M733.9,276.412a134.285,134.285,0,0,1-88.181,126.121,132.749,132.749,0,0,1-24.13,6.333,134.246,134.246,0,1,1-21.925-266.691A134.227,134.227,0,0,1,733.9,276.412Z" transform="translate(-306.437 -124.134)" fill="#e5e5e5"/>
  <path id="Path_626" data-name="Path 626" d="M775.152,744.082a132.753,132.753,0,0,1-24.13,6.333,135.143,135.143,0,0,1-67.411-6.122l6.2-24.874.374-1.493,12.651.049,63.555.228.814,2.4Z" transform="translate(-435.867 -465.683)" fill="#2f2e41"/>
  <rect id="Rectangle_25" data-name="Rectangle 25" width="116.603" height="131.94" fill="#e6e6e6"/>
  <rect id="Rectangle_25-2" data-name="Rectangle 25-2" width="112.241" height="126.358" transform="translate(2.079 2.791)" fill="#fff"/>
  <circle id="Ellipse_116" data-name="Ellipse 116" cx="6.292" cy="6.292" r="6.292" transform="translate(52.01 112.073)" fill="#e6e6e6"/>
  <rect id="Rectangle_31" data-name="Rectangle 31" width="36.137" height="3.697" transform="translate(21.102 47.519)" fill="#e6e6e6"/>
  <rect id="Rectangle_32" data-name="Rectangle 32" width="54.54" height="3.697" transform="translate(21.102 58.597)" fill="#6c63ff"/>
  <rect id="Rectangle_38" data-name="Rectangle 38" width="49.187" height="3.697" transform="translate(21.102 69.744)" fill="#e6e6e6"/>
  <rect id="Rectangle_39" data-name="Rectangle 39" width="75.955" height="3.697" transform="translate(21.102 80.597)" fill="#6c63ff"/>
  <rect id="Rectangle_40" data-name="Rectangle 40" width="61.901" height="3.697" transform="translate(21.891 90.933)" fill="#e6e6e6"/>
  <g id="Group_52" data-name="Group 52" transform="translate(145.142 46.684)">
    <path id="Path_846" data-name="Path 846" d="M452.043,608a12.1,12.1,0,0,1,1.217,1.464l56.993-1.394,6.649-12.15,19.647,7.638-9.681,22.652a9.2,9.2,0,0,1-9.559,5.516l-64.393-7.779a12.067,12.067,0,1,1-.875-15.95Z" transform="translate(-431.379 -439.989)" fill="#9f616a"/>
    <path id="Path_852" data-name="Path 852" d="M670.758,426.65l26.672-8.741,7.834-10.743,38.121,2.256,5.6,12.537,20.327,9.605-3.124,58.016-5.344,54.3c-27.481-14.23-78.768-3.381-79.217-3.2Z" transform="translate(-573.384 -328.016)" fill="#6c63ff"/>
    <path id="Path_853" data-name="Path 853" d="M645.211,533.926l-27.13-10.854.116-.483c.116-.488,11.663-48.739,13.2-56.493,1.6-8.078,7.432-10.312,7.68-10.4l.181-.067L649.99,458.9l4.715,37.05Z" transform="translate(-542.135 -356.765)" fill="#6c63ff"/>
    <path id="Path_855" data-name="Path 855" d="M811.717,642.608a12.09,12.09,0,0,1,1.9.1l37.727-42.741-4.388-13.133,18.959-9.214,10.029,22.5a9.2,9.2,0,0,1-2.454,10.76l-49.484,41.928a12.067,12.067,0,1,1-12.291-10.2Z" transform="translate(-650.064 -429.137)" fill="#9f616a"/>
    <path id="Path_856" data-name="Path 856" d="M895.85,538.566l-15.738-37.019,6.138-25.786,6.614-8.356a3.81,3.81,0,0,1,3.061.028c2.441.982,4.515,3.99,6.174,8.943l14.749,42.012Z" transform="translate(-697.578 -363.57)" fill="#6c63ff"/>
    <path id="Path_857" data-name="Path 857" d="M718.072,278.02V250.112a37.4,37.4,0,0,1,74.8-.248q0,.124,0,.248V278.02a5.029,5.029,0,0,1-5.024,5.024H723.1A5.029,5.029,0,0,1,718.072,278.02Z" transform="translate(-601.452 -212.589)" fill="#2f2e41"/>
    <circle id="Ellipse_148" data-name="Ellipse 148" cx="27.419" cy="27.419" r="27.419" transform="translate(118.914 14.967)" fill="#9f616a"/>
    <path id="Path_858" data-name="Path 858" d="M696.322,267.178a29.617,29.617,0,0,1,29.584-29.584h5.582a29.617,29.617,0,0,1,29.583,29.584v.558h-11.8l-4.023-11.268-.8,11.268h-6.1l-2.03-5.684-.407,5.684H696.322Z" transform="translate(-588.549 -227.423)" fill="#2f2e41"/>
    <path id="Path_859" data-name="Path 859" d="M783.072,319.08a4.949,4.949,0,0,1-.393-5.255c5.915-11.251,14.2-32.04,3.2-44.861l-.788-.92h31.914v47.914l-28.991,5.115a5.129,5.129,0,0,1-.889.078,5,5,0,0,1-4.054-2.071Z" transform="translate(-639.438 -245.487)" fill="#2f2e41"/>
  </g>
  <g id="Group_51" data-name="Group 51" transform="translate(44.82 10.276)">
    <path id="Path_341" data-name="Path 341" d="M198.133,123.086a13.379,13.379,0,1,0,13.378,13.379h0a13.379,13.379,0,0,0-13.379-13.379Zm0,4.013a4.013,4.013,0,1,1-4.013,4.013h0a4.013,4.013,0,0,1,4.014-4.014Zm0,19.322a9.747,9.747,0,0,1-8.028-4.284c.064-2.676,5.352-4.149,8.028-4.149s7.963,1.473,8.028,4.149a9.762,9.762,0,0,1-8.028,4.284Z" transform="translate(-184.753 -123.085)" fill="#6c63ff"/>
  </g>
  <path id="Path_842" data-name="Path 842" d="M214.714,372.332c5.512-10.1,18.716-16.5,29.517-10.732a19.538,19.538,0,0,1,9.953,12.61c1.424,6.3-1.576,12.311-4.673,17.606-1.681,2.874-3.523,5.689-4.914,8.72-1.44,3.139-2.47,6.767-1.385,10.182.976,3.076,3.424,5.314,6.1,6.959a45.488,45.488,0,0,0,9.381,4.19,55.217,55.217,0,0,0,20.943,2.71,57.276,57.276,0,0,0,10.438-1.687c3.638-.927,7.208-2.1,10.852-3.01,6.084-1.511,13.021-2.263,18.789.773,5.6,2.95,8.113,9.12,8.888,15.122,1.433,11.083-2.962,22.584-10.9,30.346a30.552,30.552,0,0,1-13.814,8.059c-4.552,1.1-10.4,1.028-14.02-2.375-4.043-3.8-3.092-9.888.119-13.9,4.1-5.113,11.041-6.341,17.237-6.465,7.048-.142,14.089.908,21.133.255a32.461,32.461,0,0,0,9.994-2.411,25.325,25.325,0,0,0,7.531-5.1,33.087,33.087,0,0,0,8.74-15.7c1.756-7.037,1.373-14.433.01-21.5a96.957,96.957,0,0,0-2.8-10.782c-.471-1.493-2.828-.854-2.354.649,4.2,13.311,6.539,28.7-1.572,41.062a24.45,24.45,0,0,1-14.621,10.525c-7.02,1.745-14.386.882-21.522.623-6.786-.247-14.237.02-20.054,3.972-4.772,3.242-8.11,9.408-6.667,15.229,1.391,5.614,6.785,8.461,12.181,8.9,5.661.461,11.232-1.439,15.986-4.41a39.515,39.515,0,0,0,17.842-28.573,32.1,32.1,0,0,0-2.736-17.922,17.546,17.546,0,0,0-6.446-7.184,21.2,21.2,0,0,0-9.183-2.83c-7.3-.672-14.315,1.834-21.241,3.752a58.9,58.9,0,0,1-10.832,2.068,54.1,54.1,0,0,1-10.687-.174,52.62,52.62,0,0,1-10.355-2.3,41.449,41.449,0,0,1-9.4-4.25c-2.6-1.661-4.844-4.04-4.971-7.281-.139-3.515,1.634-6.8,3.319-9.766,3.33-5.854,7.444-11.58,8.312-18.433a19.864,19.864,0,0,0-5.817-16.179,21.873,21.873,0,0,0-16.164-6.706,26.21,26.21,0,0,0-16.643,6.992A27.4,27.4,0,0,0,212.6,371.1c-.753,1.379,1.354,2.612,2.107,1.232Z" transform="translate(-156.358 -251.555)" fill="#3f3d56"/>
</svg>
