<?xml version="1.0" encoding="UTF-8"?>
<svg xmlns="http://www.w3.org/2000/svg" xmlns:xlink="http://www.w3.org/1999/xlink" width="810pt" height="809.999993pt" viewBox="0 0 810 809.999993" version="1.2">
<defs>
<clipPath id="clip1">
  <path d="M 11.230469 58 L 798.695312 58 L 798.695312 748 L 11.230469 748 Z M 11.230469 58 "/>
</clipPath>
</defs>
<g id="surface1">
<rect x="0" y="0" width="810" height="809.999993" style="fill:rgb(100%,100%,100%);fill-opacity:1;stroke:none;"/>
<rect x="0" y="0" width="810" height="809.999993" style="fill:rgb(100%,100%,100%);fill-opacity:1;stroke:none;"/>
<path style=" stroke:none;fill-rule:nonzero;fill:rgb(32.548523%,75.689697%,87.059021%);fill-opacity:1;" d="M 475.410156 403.253906 C 475.410156 404.40625 475.382812 405.558594 475.324219 406.707031 C 475.269531 407.859375 475.183594 409.007812 475.070312 410.15625 C 474.957031 411.304688 474.816406 412.445312 474.648438 413.585938 C 474.476562 414.726562 474.28125 415.863281 474.054688 416.992188 C 473.832031 418.125 473.578125 419.25 473.296875 420.367188 C 473.019531 421.484375 472.710938 422.597656 472.375 423.699219 C 472.042969 424.800781 471.679688 425.894531 471.292969 426.980469 C 470.902344 428.066406 470.488281 429.140625 470.046875 430.207031 C 469.605469 431.273438 469.140625 432.324219 468.648438 433.367188 C 468.152344 434.410156 467.636719 435.441406 467.09375 436.457031 C 466.546875 437.472656 465.980469 438.476562 465.386719 439.464844 C 464.796875 440.453125 464.179688 441.425781 463.539062 442.386719 C 462.898438 443.34375 462.234375 444.285156 461.546875 445.210938 C 460.859375 446.136719 460.152344 447.046875 459.417969 447.9375 C 458.6875 448.828125 457.933594 449.699219 457.160156 450.554688 C 456.386719 451.410156 455.59375 452.242188 454.777344 453.058594 C 453.960938 453.875 453.128906 454.667969 452.273438 455.441406 C 451.417969 456.21875 450.546875 456.96875 449.65625 457.703125 C 448.761719 458.433594 447.855469 459.140625 446.929688 459.828125 C 446.003906 460.515625 445.0625 461.179688 444.101562 461.820312 C 443.144531 462.460938 442.167969 463.074219 441.179688 463.667969 C 440.191406 464.261719 439.1875 464.828125 438.171875 465.371094 C 437.15625 465.917969 436.125 466.433594 435.082031 466.925781 C 434.042969 467.421875 432.988281 467.886719 431.921875 468.328125 C 430.859375 468.769531 429.78125 469.183594 428.695312 469.574219 C 427.613281 469.960938 426.515625 470.320312 425.414062 470.65625 C 424.3125 470.992188 423.199219 471.300781 422.082031 471.578125 C 420.964844 471.859375 419.839844 472.113281 418.707031 472.335938 C 417.578125 472.5625 416.441406 472.757812 415.300781 472.925781 C 414.160156 473.097656 413.015625 473.238281 411.871094 473.351562 C 410.722656 473.464844 409.574219 473.546875 408.421875 473.605469 C 407.269531 473.660156 406.117188 473.691406 404.964844 473.691406 C 403.8125 473.691406 402.660156 473.660156 401.507812 473.605469 C 400.355469 473.546875 399.207031 473.464844 398.058594 473.351562 C 396.914062 473.238281 395.769531 473.097656 394.628906 472.925781 C 393.488281 472.757812 392.351562 472.5625 391.222656 472.335938 C 390.089844 472.113281 388.964844 471.859375 387.847656 471.578125 C 386.730469 471.300781 385.617188 470.992188 384.515625 470.65625 C 383.414062 470.320312 382.316406 469.960938 381.230469 469.574219 C 380.148438 469.183594 379.070312 468.769531 378.007812 468.328125 C 376.941406 467.886719 375.886719 467.421875 374.84375 466.925781 C 373.804688 466.433594 372.773438 465.917969 371.757812 465.371094 C 370.742188 464.828125 369.738281 464.261719 368.75 463.667969 C 367.757812 463.074219 366.785156 462.460938 365.828125 461.820312 C 364.867188 461.179688 363.925781 460.515625 363 459.828125 C 362.074219 459.140625 361.164062 458.433594 360.273438 457.703125 C 359.382812 456.96875 358.511719 456.21875 357.65625 455.441406 C 356.800781 454.667969 355.96875 453.875 355.152344 453.058594 C 354.335938 452.242188 353.542969 451.410156 352.769531 450.554688 C 351.992188 449.699219 351.242188 448.828125 350.511719 447.9375 C 349.777344 447.046875 349.070312 446.136719 348.382812 445.210938 C 347.695312 444.285156 347.03125 443.34375 346.390625 442.386719 C 345.75 441.425781 345.132812 440.453125 344.542969 439.464844 C 343.949219 438.476562 343.382812 437.472656 342.835938 436.457031 C 342.292969 435.441406 341.777344 434.410156 341.28125 433.367188 C 340.789062 432.324219 340.324219 431.273438 339.882812 430.207031 C 339.441406 429.140625 339.027344 428.066406 338.636719 426.980469 C 338.25 425.894531 337.886719 424.800781 337.554688 423.699219 C 337.21875 422.597656 336.910156 421.484375 336.628906 420.367188 C 336.351562 419.25 336.097656 418.125 335.871094 416.992188 C 335.648438 415.863281 335.449219 414.726562 335.28125 413.585938 C 335.113281 412.445312 334.972656 411.304688 334.859375 410.15625 C 334.746094 409.007812 334.660156 407.859375 334.605469 406.707031 C 334.546875 405.558594 334.519531 404.40625 334.519531 403.253906 C 334.519531 402.097656 334.546875 400.945312 334.605469 399.796875 C 334.660156 398.644531 334.746094 397.496094 334.859375 396.347656 C 334.972656 395.199219 335.113281 394.058594 335.28125 392.917969 C 335.449219 391.777344 335.648438 390.640625 335.871094 389.511719 C 336.097656 388.378906 336.351562 387.253906 336.628906 386.136719 C 336.910156 385.019531 337.21875 383.90625 337.554688 382.804688 C 337.886719 381.703125 338.25 380.609375 338.636719 379.523438 C 339.027344 378.4375 339.441406 377.363281 339.882812 376.296875 C 340.324219 375.230469 340.789062 374.179688 341.28125 373.136719 C 341.777344 372.09375 342.292969 371.066406 342.835938 370.046875 C 343.382812 369.03125 343.949219 368.027344 344.542969 367.039062 C 345.132812 366.050781 345.75 365.078125 346.390625 364.117188 C 347.03125 363.160156 347.695312 362.21875 348.382812 361.292969 C 349.070312 360.367188 349.777344 359.457031 350.511719 358.566406 C 351.242188 357.675781 351.992188 356.804688 352.769531 355.949219 C 353.542969 355.09375 354.335938 354.261719 355.152344 353.445312 C 355.96875 352.628906 356.800781 351.835938 357.65625 351.0625 C 358.511719 350.285156 359.382812 349.535156 360.273438 348.804688 C 361.164062 348.070312 362.074219 347.363281 363 346.675781 C 363.925781 345.988281 364.867188 345.324219 365.828125 344.683594 C 366.785156 344.042969 367.757812 343.429688 368.75 342.835938 C 369.738281 342.242188 370.742188 341.675781 371.757812 341.132812 C 372.773438 340.589844 373.804688 340.070312 374.84375 339.578125 C 375.886719 339.085938 376.941406 338.617188 378.007812 338.175781 C 379.070312 337.734375 380.148438 337.320312 381.234375 336.933594 C 382.316406 336.542969 383.414062 336.183594 384.515625 335.847656 C 385.617188 335.511719 386.730469 335.207031 387.847656 334.925781 C 388.964844 334.644531 390.089844 334.390625 391.222656 334.167969 C 392.351562 333.941406 393.488281 333.746094 394.628906 333.578125 C 395.769531 333.40625 396.914062 333.265625 398.058594 333.152344 C 399.207031 333.039062 400.355469 332.957031 401.507812 332.898438 C 402.660156 332.84375 403.8125 332.8125 404.964844 332.8125 C 406.117188 332.8125 407.269531 332.84375 408.421875 332.898438 C 409.574219 332.957031 410.722656 333.039062 411.871094 333.152344 C 413.015625 333.265625 414.160156 333.40625 415.300781 333.578125 C 416.441406 333.746094 417.578125 333.941406 418.707031 334.167969 C 419.839844 334.390625 420.964844 334.644531 422.082031 334.925781 C 423.199219 335.207031 424.3125 335.511719 425.414062 335.847656 C 426.515625 336.183594 427.613281 336.542969 428.695312 336.933594 C 429.78125 337.320312 430.859375 337.734375 431.921875 338.175781 C 432.988281 338.617188 434.042969 339.085938 435.082031 339.578125 C 436.125 340.070312 437.15625 340.589844 438.171875 341.132812 C 439.1875 341.675781 440.191406 342.242188 441.179688 342.835938 C 442.167969 343.429688 443.144531 344.042969 444.101562 344.683594 C 445.0625 345.324219 446.003906 345.988281 446.929688 346.675781 C 447.855469 347.363281 448.761719 348.070312 449.65625 348.804688 C 450.546875 349.535156 451.417969 350.285156 452.273438 351.0625 C 453.128906 351.835938 453.960938 352.628906 454.777344 353.445312 C 455.59375 354.261719 456.386719 355.09375 457.160156 355.949219 C 457.933594 356.804688 458.6875 357.675781 459.417969 358.566406 C 460.152344 359.457031 460.859375 360.367188 461.546875 361.292969 C 462.234375 362.21875 462.898438 363.160156 463.539062 364.117188 C 464.179688 365.078125 464.796875 366.050781 465.386719 367.039062 C 465.980469 368.027344 466.546875 369.03125 467.09375 370.046875 C 467.636719 371.066406 468.152344 372.09375 468.644531 373.136719 C 469.140625 374.179688 469.605469 375.230469 470.046875 376.296875 C 470.488281 377.363281 470.902344 378.4375 471.292969 379.523438 C 471.679688 380.609375 472.042969 381.703125 472.375 382.804688 C 472.710938 383.90625 473.019531 385.019531 473.296875 386.136719 C 473.578125 387.253906 473.832031 388.378906 474.054688 389.511719 C 474.28125 390.640625 474.476562 391.777344 474.648438 392.917969 C 474.816406 394.058594 474.957031 395.199219 475.070312 396.347656 C 475.183594 397.496094 475.269531 398.644531 475.324219 399.796875 C 475.382812 400.945312 475.410156 402.097656 475.410156 403.253906 Z M 475.410156 403.253906 "/>
<g clip-path="url(#clip1)" clip-rule="nonzero">
<path style=" stroke:none;fill-rule:nonzero;fill:rgb(32.548523%,75.689697%,87.059021%);fill-opacity:1;" d="M 159.339844 527.988281 C 166.265625 530.28125 173.1875 532.613281 180.273438 534.613281 C 177.976562 543.832031 175.976562 552.921875 174.105469 562.304688 C 157.964844 647.667969 170.5625 715.316406 210.855469 738.546875 C 252.394531 762.527344 322.214844 737.921875 390.199219 678.410156 C 395.582031 673.652344 400.960938 668.730469 406.34375 663.480469 C 413.101562 670.109375 420.1875 676.40625 427.242188 682.542969 C 493.0625 739.136719 558.125 762.035156 598.289062 738.839844 C 639.824219 714.859375 653.34375 642.125 635.824219 553.542969 C 634.445312 546.785156 632.902344 539.863281 631.195312 532.777344 C 636.117188 531.398438 640.875 529.855469 645.667969 528.316406 C 734.421875 498.953125 798.695312 451.414062 798.695312 402.660156 C 798.695312 356.074219 738.09375 310.867188 654.425781 282.09375 L 654.425781 282.0625 C 646.125 279.304688 637.824219 276.679688 629.523438 274.21875 C 630.902344 268.542969 632.148438 262.835938 633.363281 257.160156 C 652.292969 165.496094 639.824219 91.875 597.828125 67.566406 C 557.371094 44.335938 491.390625 68.484375 424.652344 126.617188 C 418.023438 132.292969 411.59375 138.296875 405.425781 144.300781 C 401.257812 140.300781 396.957031 136.296875 392.660156 132.457031 C 322.675781 70.320312 252.558594 44.171875 210.558594 68.648438 C 170.265625 92.039062 158.257812 161.394531 175.1875 248.074219 C 176.894531 256.699219 178.734375 265.132812 180.867188 273.761719 C 171.023438 276.515625 161.34375 279.601562 152.253906 282.847656 C 70.128906 311.292969 11.230469 356.207031 11.230469 402.660156 C 11.230469 450.660156 73.96875 498.753906 159.339844 527.988281 Z M 368.511719 653.277344 C 343.148438 676.507812 313.75 694.945312 281.757812 707.574219 C 264.699219 715.710938 245.011719 716.5 227.457031 709.578125 C 203.011719 695.4375 192.839844 641.140625 206.6875 568.078125 C 208.394531 559.480469 210.230469 550.851562 212.363281 542.390625 C 246.816406 549.769531 281.5625 554.855469 316.800781 557.449219 C 337.113281 586.21875 359.390625 613.746094 383.242188 639.566406 C 378.320312 644.320312 373.402344 648.949219 368.480469 653.246094 Z M 563.835938 364.507812 C 556.617188 350.957031 549.234375 337.441406 541.523438 324.21875 C 533.976562 311.160156 526.136719 298.234375 518 285.472656 C 542.769531 288.558594 566.460938 292.691406 588.609375 297.777344 C 581.519531 320.542969 573.21875 342.6875 563.835938 364.507812 Z M 564.132812 441.078125 C 573.972656 463.386719 582.605469 485.992188 590.117188 509.21875 C 566.265625 514.601562 542.148438 518.765625 517.835938 521.523438 C 526.136719 508.597656 533.976562 495.375 541.6875 482.152344 C 549.53125 468.605469 556.914062 454.925781 564.132812 441.078125 Z M 546.347656 402.824219 C 536.042969 424.050781 524.953125 444.949219 513.144531 465.554688 C 501.460938 485.992188 488.992188 505.839844 475.933594 525.527344 C 453.03125 527.230469 429.179688 527.988281 405.03125 527.988281 C 380.882812 527.988281 357.519531 527.230469 334.914062 525.820312 C 321.527344 506.300781 308.925781 486.289062 297.082031 465.847656 C 285.238281 445.410156 274.3125 424.640625 264.007812 403.417969 L 263.941406 403.417969 C 274.082031 382.191406 285.171875 361.421875 296.851562 340.984375 C 308.53125 320.542969 321.164062 300.695312 334.386719 281.175781 C 357.453125 279.46875 380.980469 278.550781 404.996094 278.550781 C 429.015625 278.550781 452.671875 279.46875 475.605469 281.175781 C 488.664062 300.5625 501.132812 320.378906 512.980469 340.6875 C 524.824219 360.996094 535.878906 381.761719 546.347656 402.824219 Z M 268.207031 324.515625 C 260.660156 337.570312 253.28125 350.925781 246.355469 364.472656 C 236.675781 341.574219 228.507812 319.132812 221.746094 297.449219 C 243.894531 292.527344 267.421875 288.523438 291.863281 285.441406 C 283.761719 298.203125 275.753906 311.257812 268.207031 324.515625 Z M 246.390625 442.292969 C 253.476562 455.84375 260.695312 469.226562 268.371094 482.449219 C 276.214844 495.835938 284.21875 509.21875 292.683594 522.277344 C 268.699219 519.652344 244.847656 515.816406 221.320312 510.730469 C 228.082031 488.585938 236.546875 465.683594 246.390625 442.292969 Z M 406.210938 615.878906 C 390.527344 598.980469 374.84375 580.25 359.621094 560.070312 C 374.386719 560.695312 389.609375 560.992188 404.996094 560.992188 C 420.84375 560.992188 436.363281 560.695312 451.753906 559.90625 C 437.613281 579.429688 422.386719 598.0625 406.210938 615.878906 Z M 607.246094 662.070312 C 605.832031 680.804688 596.613281 698.324219 581.847656 710.167969 C 557.40625 724.308594 505.269531 705.867188 448.964844 657.578125 C 442.5 652.03125 436.035156 646.027344 429.441406 639.894531 C 452.96875 613.910156 474.65625 586.382812 494.34375 557.480469 C 529.546875 554.5625 564.625 549.179688 599.238281 541.339844 C 600.78125 547.636719 602.160156 553.9375 603.40625 560.105469 C 610.953125 593.339844 612.167969 627.917969 607.246094 662.070312 Z M 620.597656 305.910156 C 628.605469 308.207031 636.28125 310.667969 643.664062 313.128906 C 715.324219 337.734375 765.625 374.347656 765.625 402.332031 C 765.625 432.484375 711.945312 471.394531 635.199219 496.753906 C 630.902344 498.132812 626.601562 499.507812 622.140625 500.757812 C 611.378906 467.226562 598.15625 434.484375 582.933594 402.628906 C 597.695312 371.265625 610.164062 338.949219 620.597656 305.910156 Z M 446.308594 151.519531 C 503.5625 101.71875 556.914062 82.195312 581.226562 96.171875 C 607.210938 111.101562 617.21875 171.367188 600.914062 250.566406 C 599.828125 255.78125 598.746094 260.867188 597.367188 265.953125 C 563.210938 258.277344 528.628906 252.730469 493.851562 249.648438 C 473.867188 221.007812 452.015625 193.644531 428.328125 167.957031 C 434.332031 162.28125 440.171875 156.898438 446.308594 151.519531 Z M 405.292969 191.511719 C 421.4375 209.03125 436.660156 227.46875 450.800781 246.53125 C 420.351562 245.152344 389.742188 245.152344 359.292969 246.53125 C 374.351562 226.714844 389.90625 208.277344 405.292969 191.511719 Z M 226.867188 97.257812 C 252.722656 82.195312 310.074219 103.71875 370.511719 157.226562 C 374.351562 160.605469 378.191406 164.316406 382.195312 167.988281 C 358.339844 193.644531 336.355469 221.007812 316.210938 249.613281 C 281.464844 252.699219 247.011719 258.078125 212.855469 265.625 C 210.855469 257.785156 209.179688 249.777344 207.476562 241.773438 C 193.003906 167.332031 202.554688 111.230469 226.867188 97.257812 Z M 163.050781 314.046875 C 171.808594 310.964844 180.734375 308.207031 189.660156 305.582031 C 200.125 338.949219 212.726562 371.722656 227.324219 403.382812 C 212.5625 435.535156 199.796875 468.734375 189.199219 502.5625 L 189.167969 502.59375 C 182.703125 500.757812 176.402344 498.753906 170.101562 496.589844 C 137.359375 486.289062 100.117188 469.984375 73.210938 448.625 C 57.691406 437.863281 47.226562 421.261719 44.304688 402.628906 C 44.304688 374.480469 92.898438 338.488281 163.050781 314.046875 Z M 163.050781 314.046875 "/>
</g>
</g>
</svg>
