<svg xmlns="http://www.w3.org/2000/svg" xmlns:xlink="http://www.w3.org/1999/xlink" width="960" height="518" viewBox="0 0 960 518">
  <defs>
    <clipPath id="clip-path">
      <rect id="Rectangle_135" data-name="Rectangle 135" width="960" height="518" transform="translate(960 562)" fill="#fff" stroke="#707070" stroke-width="1"/>
    </clipPath>
    <linearGradient id="linear-gradient" x1="16.614" y1="1" x2="16.614" gradientUnits="objectBoundingBox">
      <stop offset="0" stop-color="gray" stop-opacity="0.251"/>
      <stop offset="0.54" stop-color="gray" stop-opacity="0.122"/>
      <stop offset="1" stop-color="gray" stop-opacity="0.102"/>
    </linearGradient>
  </defs>
  <g id="Mask_Group_1" data-name="Mask Group 1" transform="translate(-960 -562)" clip-path="url(#clip-path)">
    <g id="Group_203" data-name="Group 203" transform="translate(1073 622.276)">
      <path id="Path_469" data-name="Path 469" d="M358.069,551.023c28.486-11.057,73.2-13.311,113.9-12.426,127.848,2.762,243.252,29.635,343.071,60.034,36.14,11.008,71.716,22.87,95.176,38.026,47.751,30.85,33.586,73.587-32.81,99-22.595,8.649-49.979,15.3-78.1,21.147-50,10.453-103.923,18.836-160.666,21.252-40.456,1.7-81.419.314-121.638-2.062-112.385-6.66-222.689-21.292-315.148-46.441-40.554-11.008-78.775-24.7-95.47-42.519s-6.022-40.385,35.389-50.934c17.136-4.357,37.6-6.33,57.649-8.174,29.506-2.722,59.485-5.411,86.11-10.944,27.507-5.717,60.072-16.774,54.63-29.425C334.3,573.982,329.616,562.064,358.069,551.023Z" transform="translate(-77.42 -155.643)" fill="#6c63ff" opacity="0.1"/>
      <path id="Path_470" data-name="Path 470" d="M574.878,92.981,571.81,270.95s111.065,0,205.558,30.682l1.844-179.837S627.649,85.621,574.878,92.981Z" transform="translate(-162.625 -68.718)" opacity="0.1"/>
      <path id="Path_471" data-name="Path 471" d="M572.878,89.981,569.81,267.95s111.065,0,205.558,30.682l1.844-179.837S625.649,82.621,572.878,89.981Z" transform="translate(-162.264 -68.134)" fill="#f5f5fb"/>
      <path id="Path_472" data-name="Path 472" d="M467.474,92.811l3.068,177.969s-111.065,0-205.558,30.681L263.14,121.673S414.7,85.451,467.474,92.811Z" transform="translate(-106.779 -68.685)" opacity="0.1"/>
      <path id="Path_473" data-name="Path 473" d="M469.474,89.811l3.068,177.969s-111.065,0-205.558,30.682L265.14,118.673S416.7,82.451,469.474,89.811Z" transform="translate(-107.141 -68.101)" fill="#f5f5fb"/>
      <path id="Path_474" data-name="Path 474" d="M862.65,160.51V336.619s36.238-4.292,112.289,89.588L981.7,250.1S902.536,164.81,862.65,160.51Z" transform="translate(-215.142 -82.059)" opacity="0.1"/>
      <path id="Path_475" data-name="Path 475" d="M860.65,158.51V334.619s36.238-4.292,112.289,89.588L979.7,248.1S900.536,162.81,860.65,158.51Z" transform="translate(-214.752 -81.669)" fill="#f5f5fb"/>
      <path id="Path_476" data-name="Path 476" d="M203.518,167V343.117s-36.238-4.292-112.289,89.588L84.48,256.6S163.632,171.308,203.518,167Z" transform="translate(-74.624 -83.322)" opacity="0.1"/>
      <path id="Path_477" data-name="Path 477" d="M205.518,164V340.117s-36.238-4.292-112.289,89.588L86.48,253.6S165.632,168.308,205.518,164Z" transform="translate(-75.013 -82.738)" fill="#f5f5fb"/>
      <path id="Path_478" data-name="Path 478" d="M677.8,532.445c0,6-38.1,40.667-124.82,40.667S419.3,539.652,419.3,533.653s48.567,8.858,135.289,8.858S677.8,526.438,677.8,532.445Z" transform="translate(-134.619 -154.217)" fill="#f7f7fd"/>
      <ellipse id="Ellipse_235" data-name="Ellipse 235" cx="9.229" cy="1.264" rx="9.229" ry="1.264" transform="translate(248.576 293.069)" fill="#6c63ff" opacity="0.1"/>
      <ellipse id="Ellipse_236" data-name="Ellipse 236" cx="9.229" cy="1.264" rx="9.229" ry="1.264" transform="translate(212.765 296.652)" fill="#6c63ff" opacity="0.1"/>
      <ellipse id="Ellipse_237" data-name="Ellipse 237" cx="9.229" cy="1.264" rx="9.229" ry="1.264" transform="translate(170.597 291.804)" fill="#6c63ff" opacity="0.1"/>
      <ellipse id="Ellipse_238" data-name="Ellipse 238" cx="6.555" cy="0.902" rx="6.555" ry="0.902" transform="translate(229.791 307.218)" fill="#6c63ff" opacity="0.1"/>
      <ellipse id="Ellipse_239" data-name="Ellipse 239" cx="6.555" cy="0.902" rx="6.555" ry="0.902" transform="translate(192.627 306.316)" fill="#6c63ff" opacity="0.1"/>
      <path id="Path_479" data-name="Path 479" d="M334.731,415.752s12.933-42.415-2.029-59.4c-11.194-12.707-23.917-11.218-29.554-9.607a10.517,10.517,0,0,0-6.789,5.637c-1.989,4.292-1.611,11.274,12.418,19.391,23.506,13.609,24.964,32.284,24.964,32.284Z" transform="translate(-113.254 -118.117)" fill="#6c63ff"/>
      <path id="Path_480" data-name="Path 480" d="M307.48,354.46s38.138,11.926,29.586,63" transform="translate(-115.5 -119.823)" fill="none" stroke="#565987" stroke-miterlimit="10" stroke-width="1"/>
      <path id="Path_481" data-name="Path 481" d="M334.195,359.77s-5.251,3.535-3.584,8.858" transform="translate(-119.783 -120.857)" fill="none" stroke="#565987" stroke-miterlimit="10" stroke-width="1"/>
      <path id="Path_482" data-name="Path 482" d="M312.23,363.194s3.221-3.27,7.111-1.466" transform="translate(-116.447 -121.133)" fill="none" stroke="#565987" stroke-miterlimit="10" stroke-width="1"/>
      <path id="Path_483" data-name="Path 483" d="M331,383.809s5.637-2.859,7.095.725" transform="translate(-119.904 -125.327)" fill="none" stroke="#565987" stroke-miterlimit="10" stroke-width="1"/>
      <path id="Path_484" data-name="Path 484" d="M347.228,391.475s-4.236-.338-4.308,1.683" transform="translate(-122.109 -127.026)" fill="none" stroke="#565987" stroke-miterlimit="10" stroke-width="1"/>
      <path id="Path_485" data-name="Path 485" d="M339.337,425.817s-15.155-30.826-19.327-30.15c-1.973.322-2.883,2.263-3.3,4.22a12.4,12.4,0,0,0,.805,7.505C319.7,412.321,325.47,421.7,339.337,425.817Z" transform="translate(-117.176 -127.844)" fill="#6c63ff"/>
      <path id="Path_486" data-name="Path 486" d="M321,402.93s15.9,23.064,18.981,24.078" transform="translate(-118.025 -129.261)" fill="none" stroke="#565987" stroke-miterlimit="10" stroke-width="1"/>
      <line id="Line_24" data-name="Line 24" x2="3.712" transform="translate(201.467 277.269)" fill="none" stroke="#565987" stroke-miterlimit="10" stroke-width="1"/>
      <line id="Line_25" data-name="Line 25" x2="5.814" y2="0.25" transform="translate(205.977 285.708)" fill="none" stroke="#565987" stroke-miterlimit="10" stroke-width="1"/>
      <line id="Line_26" data-name="Line 26" x1="0.636" y2="3.028" transform="translate(208.905 278.96)" fill="none" stroke="#565987" stroke-miterlimit="10" stroke-width="1"/>
      <line id="Line_27" data-name="Line 27" x1="0.113" y2="2.754" transform="translate(215.698 288.181)" fill="none" stroke="#565987" stroke-miterlimit="10" stroke-width="1"/>
      <path id="Path_487" data-name="Path 487" d="M344.31,425.817s15.148-30.826,19.327-30.15c1.981.322,2.891,2.263,3.3,4.22a12.459,12.459,0,0,1-.805,7.505C363.951,412.321,358.177,421.7,344.31,425.817Z" transform="translate(-122.302 -127.844)" fill="#6c63ff"/>
      <path id="Path_488" data-name="Path 488" d="M363.563,402.93s-15.9,23.064-18.973,24.078" transform="translate(-122.367 -129.261)" fill="none" stroke="#565987" stroke-miterlimit="10" stroke-width="1"/>
      <line id="Line_28" data-name="Line 28" x1="3.712" transform="translate(239.114 277.269)" fill="none" stroke="#565987" stroke-miterlimit="10" stroke-width="1"/>
      <line id="Line_29" data-name="Line 29" x1="5.822" y2="0.25" transform="translate(232.481 285.708)" fill="none" stroke="#565987" stroke-miterlimit="10" stroke-width="1"/>
      <line id="Line_30" data-name="Line 30" x2="0.636" y2="3.028" transform="translate(234.772 278.96)" fill="none" stroke="#565987" stroke-miterlimit="10" stroke-width="1"/>
      <line id="Line_31" data-name="Line 31" x2="0.113" y2="2.754" transform="translate(228.505 288.181)" fill="none" stroke="#565987" stroke-miterlimit="10" stroke-width="1"/>
      <path id="Path_489" data-name="Path 489" d="M311.782,441.042a2.625,2.625,0,0,1-.862-1.3,1.143,1.143,0,0,1,.6-1.321c.548-.217,1.144.169,1.611.556a2.126,2.126,0,0,0,1.546.749,2.367,2.367,0,0,1-.733-2.206,1.015,1.015,0,0,1,.209-.451c.306-.33.862-.185,1.232.072,1.168.805,1.49,2.416,1.5,3.841a6.894,6.894,0,0,0,0-1.611,1.61,1.61,0,0,1,.6-1.4,1.82,1.82,0,0,1,.9-.217,1.884,1.884,0,0,1,1.474.419,1.482,1.482,0,0,1-.056,1.812,5.758,5.758,0,0,1-1.522,1.216,3.278,3.278,0,0,0-1.087,1.039.756.756,0,0,0-.081.185h-3.3A9.581,9.581,0,0,1,311.782,441.042Z" transform="translate(-116.192 -135.87)" fill="#6c63ff"/>
      <path id="Path_490" data-name="Path 490" d="M383.482,425.623a2.61,2.61,0,0,1-.862-1.3,1.152,1.152,0,0,1,.6-1.329,1.691,1.691,0,0,1,1.611.564,2.086,2.086,0,0,0,1.546.741,2.359,2.359,0,0,1-.733-2.207.9.9,0,0,1,.209-.443c.306-.33.862-.193,1.232.064,1.168.805,1.49,2.416,1.5,3.849a6.958,6.958,0,0,0,0-1.611,1.611,1.611,0,0,1,.6-1.4,1.732,1.732,0,0,1,.9-.209,1.852,1.852,0,0,1,1.474.419,1.466,1.466,0,0,1-.056,1.8,5.759,5.759,0,0,1-1.522,1.216,3.358,3.358,0,0,0-1.087,1.039.758.758,0,0,0-.08.185h-3.3A9.3,9.3,0,0,1,383.482,425.623Z" transform="translate(-129.397 -132.868)" fill="#6c63ff"/>
      <path id="Path_491" data-name="Path 491" d="M359.583,441.042a2.625,2.625,0,0,1-.862-1.3,1.152,1.152,0,0,1,.6-1.321c.556-.217,1.144.169,1.611.556a2.134,2.134,0,0,0,1.546.749,2.36,2.36,0,0,1-.725-2.206.918.918,0,0,1,.2-.451c.306-.33.862-.185,1.232.072,1.168.805,1.5,2.416,1.506,3.841a7.385,7.385,0,0,0,0-1.611,1.61,1.61,0,0,1,.6-1.4,2.416,2.416,0,0,1,2.376.2,1.466,1.466,0,0,1-.056,1.812,5.636,5.636,0,0,1-1.522,1.216A3.432,3.432,0,0,0,365,442.234a1.3,1.3,0,0,0-.081.185h-3.294a9.431,9.431,0,0,1-2.045-1.377Z" transform="translate(-124.996 -135.87)" fill="#6c63ff"/>
      <path id="Path_492" data-name="Path 492" d="M291.332,410.89s-1.232,1.611.572,4.026,3.3,4.5,2.7,6.024c0,0-2.73-4.534-4.944-4.6S288.916,413.612,291.332,410.89Z" transform="translate(-112.091 -130.81)" fill="#6c63ff"/>
      <path id="Path_493" data-name="Path 493" d="M291.333,410.89a1.9,1.9,0,0,0-.25.507c-2.166,2.537-3.318,4.912-1.24,4.969,1.941.056,4.268,3.527,4.832,4.4a1.477,1.477,0,0,1-.064.2s-2.73-4.534-4.944-4.6S288.917,413.612,291.333,410.89Z" transform="translate(-112.092 -130.81)" opacity="0.1"/>
      <path id="Path_494" data-name="Path 494" d="M289.18,413.352c0,.572.064,1.031.145,1.031s.137-.459.137-1.031-.073-.3-.153-.3S289.18,412.788,289.18,413.352Z" transform="translate(-112.219 -131.219)" fill="#ffd037"/>
      <path id="Path_495" data-name="Path 495" d="M288.131,414.2c.5.274.934.435.974.362s-.338-.346-.805-.612-.306-.081-.338,0S287.631,413.963,288.131,414.2Z" transform="translate(-111.97 -131.379)" fill="#ffd037"/>
      <path id="Path_496" data-name="Path 496" d="M299.318,410.89s1.24,1.611-.572,4.026-3.294,4.5-2.69,6.024c0,0,2.722-4.534,4.945-4.6S301.758,413.612,299.318,410.89Z" transform="translate(-113.445 -130.81)" fill="#6c63ff"/>
      <path id="Path_497" data-name="Path 497" d="M299.332,410.89a1.9,1.9,0,0,1,.25.507c2.166,2.537,3.318,4.912,1.24,4.969-1.941.056-4.26,3.527-4.832,4.4a1.489,1.489,0,0,0,.064.2s2.722-4.534,4.945-4.6S301.772,413.612,299.332,410.89Z" transform="translate(-113.458 -130.81)" opacity="0.1"/>
      <path id="Path_498" data-name="Path 498" d="M302.932,413.352c0,.572-.056,1.031-.137,1.031s-.145-.459-.145-1.031.081-.3.161-.3S302.932,412.788,302.932,413.352Z" transform="translate(-114.702 -131.219)" fill="#ffd037"/>
      <path id="Path_499" data-name="Path 499" d="M303.766,414.2c-.5.274-.934.435-.966.362s.33-.346.805-.612.306-.081.346,0S304.241,413.963,303.766,414.2Z" transform="translate(-114.726 -131.379)" fill="#ffd037"/>
      <path id="Path_500" data-name="Path 500" d="M299.4,422.691s-3.463-.1-4.5-.846-5.315-1.611-5.573-.443-5.194,5.919-1.3,5.951,9.068-.612,10.106-1.24S299.4,422.691,299.4,422.691Z" transform="translate(-111.699 -132.746)" fill="#a8a8a8"/>
      <path id="Path_501" data-name="Path 501" d="M287.965,427.382c3.9,0,9.068-.6,10.106-1.24.805-.483,1.1-2.215,1.208-3.012h.121s-.225,2.786-1.264,3.422-6.2,1.272-10.106,1.24c-1.119,0-1.514-.411-1.49-1.007C286.693,427.156,287.128,427.374,287.965,427.382Z" transform="translate(-111.699 -133.194)" opacity="0.2"/>
      <ellipse id="Ellipse_240" data-name="Ellipse 240" cx="27.96" cy="4.131" rx="27.96" ry="4.131" transform="translate(130.998 395.606)" fill="#6c63ff" opacity="0.1"/>
      <ellipse id="Ellipse_241" data-name="Ellipse 241" cx="27.96" cy="4.131" rx="27.96" ry="4.131" transform="translate(210.177 429.815)" fill="#6c63ff" opacity="0.1"/>
      <ellipse id="Ellipse_242" data-name="Ellipse 242" cx="27.96" cy="4.131" rx="27.96" ry="4.131" transform="translate(92.423 468.735)" fill="#6c63ff" opacity="0.1"/>
      <ellipse id="Ellipse_243" data-name="Ellipse 243" cx="27.96" cy="4.131" rx="27.96" ry="4.131" transform="translate(695.834 554.224)" fill="#6c63ff" opacity="0.1"/>
      <ellipse id="Ellipse_244" data-name="Ellipse 244" cx="18.514" cy="2.07" rx="18.514" ry="2.07" transform="translate(382.056 461.229)" fill="#6c63ff" opacity="0.1"/>
      <ellipse id="Ellipse_245" data-name="Ellipse 245" cx="18.514" cy="2.07" rx="18.514" ry="2.07" transform="translate(650.581 354.931)" fill="#6c63ff" opacity="0.1"/>
      <ellipse id="Ellipse_246" data-name="Ellipse 246" cx="18.514" cy="2.07" rx="18.514" ry="2.07" transform="translate(504.475 511.962)" fill="#6c63ff" opacity="0.1"/>
      <ellipse id="Ellipse_247" data-name="Ellipse 247" cx="18.514" cy="2.07" rx="18.514" ry="2.07" transform="translate(342.512 498.305)" fill="#6c63ff" opacity="0.1"/>
      <ellipse id="Ellipse_248" data-name="Ellipse 248" cx="18.514" cy="2.07" rx="18.514" ry="2.07" transform="translate(190.726 492.933)" fill="#6c63ff" opacity="0.1"/>
      <ellipse id="Ellipse_249" data-name="Ellipse 249" cx="18.514" cy="2.07" rx="18.514" ry="2.07" transform="translate(151.174 530.009)" fill="#6c63ff" opacity="0.1"/>
      <g id="Group_202" data-name="Group 202" transform="translate(290.479 138.196)" opacity="0.1">
        <ellipse id="Ellipse_250" data-name="Ellipse 250" cx="122.501" cy="54.671" rx="122.501" ry="54.671" transform="translate(1.973)"/>
        <path id="Path_502" data-name="Path 502" d="M675.57,326.681c-5.42,28.507-58.971,50.886-124.248,50.886-65.848,0-119.77-22.774-124.393-51.627h-.459V372.4c21.533,22.5,69.206,38.147,124.546,38.147S654.028,394.9,675.57,372.4Z" transform="translate(-426.47 -252.465)"/>
        <path id="Path_503" data-name="Path 503" d="M675.57,396.879c-5.42,28.5-58.971,50.886-124.248,50.886-65.848,0-119.77-22.774-124.393-51.635h-.459V442.6c21.533,22.5,69.207,38.138,124.546,38.138S654.028,465.095,675.57,442.6Z" transform="translate(-426.47 -266.132)"/>
        <path id="Path_504" data-name="Path 504" d="M675.57,474.091c-5.42,28.507-58.971,50.886-124.248,50.886-65.848,0-119.77-22.766-124.393-51.627h-.459v50.105a7.723,7.723,0,0,0,2.48,5.685c22.548,20.7,68.764,28.813,122.066,28.813s99.493-8.109,122.074-28.813a7.723,7.723,0,0,0,2.48-5.685Z" transform="translate(-426.47 -281.168)"/>
      </g>
      <ellipse id="Ellipse_251" data-name="Ellipse 251" cx="122.501" cy="54.671" rx="122.501" ry="54.671" transform="translate(292.453 134.975)" fill="#6c63ff"/>
      <path id="Path_505" data-name="Path 505" d="M675.57,322.681c-5.42,28.507-58.971,50.886-124.248,50.886-65.848,0-119.77-22.774-124.393-51.627h-.459V368.4c21.533,22.5,69.206,38.147,124.546,38.147S654.028,390.9,675.57,368.4Z" transform="translate(-135.991 -113.491)" fill="#6c63ff"/>
      <path id="Path_506" data-name="Path 506" d="M675.57,392.879c-5.42,28.5-58.971,50.886-124.248,50.886-65.848,0-119.77-22.774-124.393-51.635h-.459V438.6c21.533,22.5,69.207,38.139,124.546,38.139S654.028,461.095,675.57,438.6Z" transform="translate(-135.991 -127.158)" fill="#6c63ff"/>
      <path id="Path_507" data-name="Path 507" d="M675.57,470.091c-5.42,28.507-58.971,50.886-124.248,50.886-65.848,0-119.77-22.765-124.393-51.627h-.459v50.1a7.724,7.724,0,0,0,2.48,5.685c22.548,20.7,68.764,28.813,122.066,28.813s99.493-8.109,122.074-28.813a7.723,7.723,0,0,0,2.48-5.685Z" transform="translate(-135.991 -142.193)" fill="#6c63ff"/>
      <ellipse id="Ellipse_252" data-name="Ellipse 252" cx="45.901" cy="8.262" rx="45.901" ry="8.262" transform="translate(552.297 451.759)" fill="#6c63ff" opacity="0.1"/>
      <path id="Path_508" data-name="Path 508" d="M772.96,474.817c2.319,1.369,5.959,2.263,10.541-.685l-.04,6.531c.322,4.478,5.862,20.8,5.862,20.8l3.906,13.424a104.748,104.748,0,0,1,4.292,29.216,27.974,27.974,0,0,0,1.248,9.2c2.086,5.637-.805,12.885-2.07,15.558a64.508,64.508,0,0,1-6.442,1.812,4.692,4.692,0,0,0-.572.177v-.04s-5.862,2.327-8.472,2.005c-1.941-.233-3.157,2.19-1.611,3.97a11.984,11.984,0,0,1-3.9.515c-2.609-.322-3.914,4.155.974,5.436s32.582,0,32.582,0a3.921,3.921,0,0,0,2.078-4.332l3.463-.145s4.888-2.239,0-8.319l-.266.193-1.039-3.076v-4.147s6.193-29.8,4.236-33.283-3-21.477-3-21.477l.684-19.488c1.763-3.64,2.666-9.357,3.125-13.827a29,29,0,0,0,1.248-6.555c.081-1.055.145-2.15.185-3.294a21.954,21.954,0,0,0-1.192-7.376,74.124,74.124,0,0,1,7.384-9.261,9.518,9.518,0,0,0,2.939-8.319L827.5,429.149l-3.914-18.522c.491-5.146-.58-8.109-1.772-9.784.282-1.667.547-3.326.749-5a64.1,64.1,0,0,0-1.144-21.743c-.564-2.48-1.337-5.033-3.084-6.917-1.973-2.142-5.178-3.439-5.919-6.233a16.645,16.645,0,0,0-.451-2.11c-.717-1.828-2.972-2.5-4.953-2.738-3.527-.427-8.625-.749-12.015.636a14.569,14.569,0,0,0-6.958,6.458,5.548,5.548,0,0,0-.805,3.986,5.308,5.308,0,0,0,.556,1.369,12.393,12.393,0,0,0,7.2,15.864c.081.25.153.491.209.725a12.422,12.422,0,0,1,.322,1.747c-.065,1.127-.137,2.263-.185,3.4l-.121.459a84.619,84.619,0,0,0-8.19,4.171c1.949,2.883-.33,15.043-.33,15.043-4.888,2.875-9.768,10.235-4.558,17.918a19.17,19.17,0,0,1,2.279,15.993l-.805,12.514h0l-.161,2.5h.057l-.057.95h.137v1.023a15.19,15.19,0,0,0-7.626,5.677,20.075,20.075,0,0,1-3.406,4.179,2.513,2.513,0,0,0,.4,4.1ZM812.3,441.575a11.9,11.9,0,0,1,1.16-6.3h2.3a14.987,14.987,0,0,0,.282,1.514C816.7,439.65,814.062,440.995,812.3,441.575Z" transform="translate(-200.61 -120.071)" fill="url(#linear-gradient)"/>
      <path id="Path_509" data-name="Path 509" d="M816.629,615.732l1.256,3.761-4.075,4.075-13.48,3.173-9.72-.942.628-3.447h0a4.163,4.163,0,0,1,3.084-3.044c4.026-.934,11.612-3.076,13.215-6.048Z" transform="translate(-204.38 -170.214)" fill="#db8b8b"/>
      <path id="Path_510" data-name="Path 510" d="M816.629,615.732l1.256,3.761-4.075,4.075-13.48,3.173-9.72-.942.628-3.447h0a4.163,4.163,0,0,1,3.084-3.044c4.026-.934,11.612-3.076,13.215-6.048Z" transform="translate(-204.38 -170.214)" opacity="0.1"/>
      <path id="Path_511" data-name="Path 511" d="M791.989,626.1l1.885-2.5-1.885-2.907s-5.637,2.279-8.15,1.965-3.761,4.075.942,5.331,31.35,0,31.35,0,4.7-2.2,0-8.158l-4.075,3.141s-6.9,3.761-10.348,3.133Z" transform="translate(-202.636 -171.493)" fill="#c17174"/>
      <path id="Path_512" data-name="Path 512" d="M784,631.208l9.72.942L807.2,629.01l4.075-4.075-.33-.99-.467-1.4-.459-1.369-9.108-2.5a5.638,5.638,0,0,1-1.844,1.844c-2.956,2.021-8.254,3.479-11.371,4.2a3.055,3.055,0,0,0-.387.121,4.026,4.026,0,0,0-1.611.974,4.109,4.109,0,0,0-1.111,1.949Z" transform="translate(-203.164 -171.268)" fill="#db8b8b"/>
      <path id="Path_513" data-name="Path 513" d="M784,632.484l9.72.942,13.481-3.141,4.075-4.075-.33-.991-3.745,2.875s-6.9,3.761-10.348,3.133h-9.728l1.884-2.5-1.691-2.609a4.028,4.028,0,0,0-1.611.974,4.106,4.106,0,0,0-1.111,1.949Z" transform="translate(-203.164 -172.543)" opacity="0.1"/>
      <path id="Path_514" data-name="Path 514" d="M785.369,631.555l1.885-2.5-1.885-2.907s-5.637,2.279-8.149,1.965-3.761,4.075.942,5.331,31.35,0,31.35,0,4.7-2.2,0-8.15l-4.075,3.133s-6.9,3.761-10.348,3.133Z" transform="translate(-201.419 -172.557)" fill="#c17174"/>
      <path id="Path_515" data-name="Path 515" d="M797.61,403.253s15.051,1.611,12.885-4.7a11.2,11.2,0,0,1-.467-5.54,15.252,15.252,0,0,1,2.657-6.37l-14.109,2.19a17.609,17.609,0,0,1,1.917,4.534C802.144,400.016,797.61,403.253,797.61,403.253Z" transform="translate(-205.782 -126.089)" fill="#db8b8b"/>
      <path id="Path_516" data-name="Path 516" d="M825.136,496s-.314,13.481-3.447,20.068l-.628,19.126s.934,17.555,2.818,21S819.8,588.8,819.8,588.8v5.017s-10.034,3.761-12.885-.628l2.819-37.309-1.256-51.724Z" transform="translate(-207.466 -147.382)" fill="#474463"/>
      <path id="Path_517" data-name="Path 517" d="M825.136,496s-.314,13.481-3.447,20.068l-.628,19.126s.934,17.555,2.818,21S819.8,588.8,819.8,588.8v5.017s-10.034,3.761-12.885-.628l2.819-37.309-1.256-51.724Z" transform="translate(-207.466 -147.382)" opacity="0.1"/>
      <path id="Path_518" data-name="Path 518" d="M833.92,442.31l1.884,5.017,1.61,10.654a9.462,9.462,0,0,1-2.826,8.158c-3.761,3.761-8.778,11.6-8.778,11.6l-5.951-17.869s5.951-.942,5.009-5.017-.62-11.6-.62-11.6Z" transform="translate(-209.854 -136.928)" fill="#ff748e"/>
      <path id="Path_519" data-name="Path 519" d="M834,442.22l1.876,5.017,1.611,10.662a9.422,9.422,0,0,1-2.818,8.15c-3.769,3.761-8.778,11.6-8.778,11.6l-6-17.894s5.959-.942,5.017-5.017-.628-11.6-.628-11.6Z" transform="translate(-209.859 -136.911)" opacity="0.05"/>
      <path id="Path_520" data-name="Path 520" d="M802.72,620.546c4.026,6.33,10.284,2.738,11.395,2.029l-.459-1.369-9.1-2.537A5.638,5.638,0,0,1,802.72,620.546Z" transform="translate(-206.757 -171.268)" opacity="0.1"/>
      <path id="Path_521" data-name="Path 521" d="M787.1,502.807c.314,4.389,5.637,20.374,5.637,20.374l3.761,13.159a105,105,0,0,1,4.131,28.62,27.953,27.953,0,0,0,1.2,9.011c2.512,6.9-2.5,16.3-2.5,16.3,4.389,7.844,11.91,2.512,11.91,2.512v-5.017s5.959-27.275,4.389-32.606-2.19-19.746-2.19-19.746V509.386a29.53,29.53,0,0,0,8.6-18.715c.073-1.031.137-2.11.177-3.221.25-7.07-4.59-15.365-6.442-18.32-.451-.717-.741-1.119-.741-1.119L787.35,478.994h-.064v3.455Z" transform="translate(-203.661 -141.932)" fill="#474463"/>
      <path id="Path_522" data-name="Path 522" d="M798.78,388.83a17.608,17.608,0,0,1,1.917,4.534,12.256,12.256,0,0,0,9.534-.354,15.251,15.251,0,0,1,2.657-6.37Z" transform="translate(-206.006 -126.089)" opacity="0.1"/>
      <circle id="Ellipse_253" data-name="Ellipse 253" cx="12.224" cy="12.224" r="12.224" transform="translate(586.84 242.996)" fill="#db8b8b"/>
      <path id="Path_523" data-name="Path 523" d="M787.1,482.417h.137c13.142,2.706,29.651-10.992,29.651-10.992a16.385,16.385,0,0,1-1.143-2.335c-.451-.717-.741-1.119-.741-1.119l-27.678,10.984-.073,1.1Z" transform="translate(-203.711 -141.925)" opacity="0.1"/>
      <path id="Path_524" data-name="Path 524" d="M789.737,405.107s17.555-10.662,23.192-6.273l7.843,10.034s5.017,1.57,4.083,11.636l3.761,18.183-11.274,2.819s-6.579,6.273-1.248,15.365c0,0-16.621,13.795-29.8,10.968l.942-14.729a19.121,19.121,0,0,0-2.19-15.679c-5.009-7.521-.314-14.737,4.389-17.555C789.423,419.844,791.613,407.925,789.737,405.107Z" transform="translate(-202.787 -128.257)" fill="#ff748e"/>
      <path id="Path_525" data-name="Path 525" d="M786.879,486.3s-6.587,1.256-9.72,6.273a19.569,19.569,0,0,1-3.286,4.1,2.48,2.48,0,0,0,.395,3.962c2.488,1.5,6.539,2.416,11.669-1.8C794.755,491.631,786.879,486.3,786.879,486.3Z" transform="translate(-201.245 -145.494)" fill="#db8b8b"/>
      <path id="Path_526" data-name="Path 526" d="M799.712,414.223s6.265-.628,7.836,15.671,4.075,20.068,4.075,20.068,1.57,8.464-2.2,13.48-10.968,15.679-10.968,15.679-7.835,2.19-9.406-5.637l9.72-18.183s1.562-6.273-2.2-10.662S789.992,411.082,799.712,414.223Z" transform="translate(-204.134 -131.413)" opacity="0.1"/>
      <path id="Path_527" data-name="Path 527" d="M798.942,413.053s6.265-.628,7.836,15.679,4.075,20.06,4.075,20.06,1.611,8.464-2.19,13.481-10.936,15.679-10.936,15.679-7.835,2.19-9.406-5.637l9.72-18.183s1.57-6.273-2.2-10.662S789.222,409.921,798.942,413.053Z" transform="translate(-204 -131.186)" fill="#ff748e"/>
      <path id="Path_528" data-name="Path 528" d="M795.066,427.71s-.62,9.72,2.2,15.051,2.819,12.224,0,15.985" transform="translate(-205.4 -134.086)" opacity="0.1"/>
      <path id="Path_529" data-name="Path 529" d="M793.14,411.623s2.5-2.5,9.72-2.819,10.34-2.5,10.34-2.5" transform="translate(-204.913 -129.917)" opacity="0.1"/>
      <path id="Path_530" data-name="Path 530" d="M810.267,360.314c1.909.234,4.083.886,4.767,2.674a17.865,17.865,0,0,1,.443,2.07c.709,2.738,3.793,4.026,5.693,6.1a14.654,14.654,0,0,1,2.963,6.789,63.756,63.756,0,0,1,1.1,21.3c-.612,5.194-1.868,10.316-2.215,15.534s.29,10.718,3.141,15.107c1.232,1.884,2.851,3.543,3.72,5.637-1.8,1.458-4.276,1.667-6.6,1.747q-4.026.137-8.093,0a8.591,8.591,0,0,1-4.107-.862,6.328,6.328,0,0,1-2.158-2.311,16.544,16.544,0,0,1-1.868-8.8c.065-3.036.548-6.056.6-9.1a7.908,7.908,0,0,0-1.055-4.767,15.357,15.357,0,0,0-2.625-2.416c-3.358-2.98-4.509-7.747-4.622-12.232s.628-8.971.25-13.44c-.145-1.748-.805-3.849-2.521-4.187a9.173,9.173,0,0,1-1.611-.209c-1.377-.532-1.24-2.472-1.611-3.9-.443-1.611-1.812-2.843-2.2-4.453-.9-3.793,3.93-8.327,7.095-9.663S806.877,359.9,810.267,360.314Z" transform="translate(-204.45 -120.894)" opacity="0.1"/>
      <path id="Path_531" data-name="Path 531" d="M810.657,359.538c1.909.234,4.083.886,4.767,2.682a17.323,17.323,0,0,1,.443,2.062c.709,2.738,3.793,4.026,5.693,6.1a14.654,14.654,0,0,1,2.963,6.789,63.756,63.756,0,0,1,1.1,21.324c-.6,5.194-1.86,10.316-2.207,15.542s.29,10.71,3.141,15.1c1.232,1.892,2.851,3.543,3.72,5.637-1.8,1.466-4.276,1.667-6.6,1.747q-4.026.129-8.093,0a8.584,8.584,0,0,1-4.107-.854,6.353,6.353,0,0,1-2.158-2.319,16.542,16.542,0,0,1-1.868-8.8c.064-3.036.548-6.056.6-9.092A8.119,8.119,0,0,0,807,410.69a15.078,15.078,0,0,0-2.625-2.416c-3.358-2.98-4.51-7.747-4.622-12.232s.628-8.971.25-13.44c-.145-1.747-.805-3.849-2.521-4.187a9.168,9.168,0,0,1-1.611-.209c-1.377-.532-1.24-2.472-1.61-3.9-.443-1.611-1.812-2.835-2.2-4.453-.9-3.793,3.93-8.327,7.095-9.663S807.291,359.119,810.657,359.538Z" transform="translate(-204.522 -120.745)" fill="#464353"/>
      <path id="Path_532" data-name="Path 532" d="M200.28,634.732s8.633-.266,11.226-2.118,13.271-4.067,13.915-1.1,12.965,14.769,3.221,14.85-22.629-1.522-25.23-3.1S200.28,634.732,200.28,634.732Z" transform="translate(-97.171 -173.487)" fill="#a8a8a8"/>
      <path id="Path_533" data-name="Path 533" d="M228.819,646.434c-9.736.081-22.629-1.514-25.222-3.092-1.973-1.208-2.762-5.524-3.028-7.521h-.29s.548,6.958,3.141,8.536,15.486,3.173,25.23,3.1c2.81,0,3.777-1.023,3.728-2.5C231.984,645.878,230.913,646.434,228.819,646.434Z" transform="translate(-97.171 -174.607)" opacity="0.2"/>
      <path id="Path_534" data-name="Path 534" d="M881.17,494.435s5.919-.185,7.707-1.458,9.108-2.786,9.551-.749,8.907,10.139,2.215,10.195-15.534-1.047-17.314-2.126S881.17,494.435,881.17,494.435Z" transform="translate(-221.093 -146.454)" fill="#a8a8a8"/>
      <path id="Path_535" data-name="Path 535" d="M900.763,502.488c-6.684.048-15.534-1.047-17.314-2.126-1.361-.805-1.9-3.793-2.078-5.162h-.2s.378,4.775,2.158,5.862,10.63,2.174,17.314,2.126c1.933,0,2.6-.7,2.561-1.723C902.937,502.093,902.2,502.472,900.763,502.488Z" transform="translate(-221.093 -147.227)" opacity="0.2"/>
      <circle id="Ellipse_254" data-name="Ellipse 254" cx="17.418" cy="17.418" r="17.418" transform="translate(7.779 0)" fill="#6c63ff" opacity="0.1"/>
      <circle id="Ellipse_255" data-name="Ellipse 255" cx="17.418" cy="17.418" r="17.418" transform="translate(767.697 49.928)" fill="#6c63ff" opacity="0.1"/>
      <circle id="Ellipse_256" data-name="Ellipse 256" cx="12.885" cy="12.885" r="12.885" transform="translate(0 72.621)" fill="#6c63ff" opacity="0.1"/>
      <circle id="Ellipse_257" data-name="Ellipse 257" cx="12.885" cy="12.885" r="12.885" transform="translate(130.457 0.145)" fill="#6c63ff" opacity="0.1"/>
      <circle id="Ellipse_258" data-name="Ellipse 258" cx="12.885" cy="12.885" r="12.885" transform="translate(667.517 1.756)" fill="#6c63ff" opacity="0.1"/>
      <path id="Path_536" data-name="Path 536" d="M959.714,709.49s3.221,4.22-1.49,10.59-8.6,11.741-7.03,15.711c0,0,7.111-11.822,12.885-11.991S966.076,716.609,959.714,709.49Z" transform="translate(-232.313 -188.951)" fill="#fc6681"/>
      <path id="Path_537" data-name="Path 537" d="M959.755,709.49a5.166,5.166,0,0,1,.652,1.329c5.637,6.635,8.665,12.828,3.221,12.981-5.057.145-11.121,9.188-12.579,11.475a4.353,4.353,0,0,0,.177.515s7.111-11.822,12.885-11.991S966.117,716.609,959.755,709.49Z" transform="translate(-232.354 -188.951)" opacity="0.1"/>
      <path id="Path_538" data-name="Path 538" d="M969.121,715.937c0,1.482-.169,2.69-.37,2.69s-.37-1.208-.37-2.69.209-.805.411-.805S969.121,714.447,969.121,715.937Z" transform="translate(-235.729 -190.019)" fill="#ffd037"/>
      <path id="Path_539" data-name="Path 539" d="M971.242,718.125c-1.3.709-2.416,1.136-2.545.958s.886-.9,2.182-1.611.805-.193.894,0S972.547,717.416,971.242,718.125Z" transform="translate(-235.788 -190.435)" fill="#ffd037"/>
      <path id="Path_540" data-name="Path 540" d="M938.955,709.49s-3.221,4.22,1.49,10.59,8.6,11.741,7.03,15.711c0,0-7.119-11.822-12.885-11.991S932.586,716.609,938.955,709.49Z" transform="translate(-228.595 -188.951)" fill="#fc6681"/>
      <path id="Path_541" data-name="Path 541" d="M938.957,709.49a5.325,5.325,0,0,0-.66,1.329c-5.637,6.635-8.657,12.828-3.221,12.981,5.057.145,11.129,9.188,12.579,11.475-.048.169-.1.346-.169.515,0,0-7.119-11.822-12.885-11.991S932.587,716.609,938.957,709.49Z" transform="translate(-228.596 -188.951)" opacity="0.1"/>
      <path id="Path_542" data-name="Path 542" d="M933.25,715.937c0,1.482.169,2.69.378,2.69s.37-1.208.37-2.69-.209-.805-.419-.805S933.25,714.447,933.25,715.937Z" transform="translate(-228.888 -190.019)" fill="#ffd037"/>
      <path id="Path_543" data-name="Path 543" d="M930.51,718.125c1.3.709,2.416,1.136,2.537.958s-.878-.9-2.182-1.611-.805-.193-.886,0S929.205,717.416,930.51,718.125Z" transform="translate(-228.202 -190.435)" fill="#ffd037"/>
      <path id="Path_544" data-name="Path 544" d="M934.53,740.292s9.019-.282,11.733-2.215,13.875-4.244,14.552-1.143,13.545,15.437,3.366,15.518-23.659-1.611-26.365-3.221S934.53,740.292,934.53,740.292Z" transform="translate(-229.138 -194)" fill="#a8a8a8"/>
      <path id="Path_545" data-name="Path 545" d="M964.366,752.551c-10.187.081-23.659-1.61-26.373-3.221-2.061-1.256-2.891-5.774-3.165-7.86h-.3s.572,7.248,3.286,8.923,16.186,3.318,26.365,3.221c2.939,0,3.954-1.071,3.9-2.617C967.676,751.947,966.548,752.535,964.366,752.551Z" transform="translate(-229.138 -195.178)" opacity="0.2"/>
      <path id="Path_546" data-name="Path 546" d="M384.6,189.06a16.911,16.911,0,1,0,16.911,16.911A16.911,16.911,0,0,0,384.6,189.06Zm0,3.278a13.69,13.69,0,1,1-13.69,13.69,13.69,13.69,0,0,1,13.69-13.69m9.575,8.9-1.538-1.554a.805.805,0,0,0-1.16,0l-9.664,9.575-4.075-4.139a.805.805,0,0,0-1.16,0l-1.546,1.538a.805.805,0,0,0,0,1.16l6.2,6.249a.805.805,0,0,0,1.16,0l11.781-11.693a.805.805,0,0,0,0-1.16Z" transform="translate(-126.561 -87.618)" fill="#3acc6c" opacity="0.7"/>
      <path id="Path_547" data-name="Path 547" d="M153.045,295.274a16.911,16.911,0,1,0,12.788,2.131A16.911,16.911,0,0,0,153.045,295.274Zm.741,3.221a13.69,13.69,0,1,1-10.235,16.38,13.69,13.69,0,0,1,10.235-16.38m11.33,6.523-1.852-1.192a.805.805,0,0,0-1.127.258l-7.248,11.5-4.9-3.1a.805.805,0,0,0-1.127.258l-1.168,1.852a.805.805,0,0,0,.258,1.127l7.441,4.695a.805.805,0,0,0,1.135-.258l8.858-14.036a.805.805,0,0,0-.25-1.127Z" transform="translate(-85.425 -108.213)" fill="#3acc6c" opacity="0.7"/>
      <path id="Path_548" data-name="Path 548" d="M690.671,192.1a16.911,16.911,0,1,0,16.911,16.911A16.911,16.911,0,0,0,690.671,192.1Zm0,3.278a13.69,13.69,0,1,1-13.69,13.69,13.69,13.69,0,0,1,13.69-13.69m9.575,8.9-1.538-1.554a.805.805,0,0,0-1.16,0l-9.663,9.575-4.083-4.115a.805.805,0,0,0-1.16,0l-1.538,1.554a.806.806,0,0,0,0,1.16l6.2,6.249a.805.805,0,0,0,1.16,0l11.781-11.693a.805.805,0,0,0,0-1.16Z" transform="translate(-182.834 -88.21)" fill="#3acc6c" opacity="0.7"/>
      <path id="Path_549" data-name="Path 549" d="M931.284,295.8a16.911,16.911,0,1,0,11.546,5.872A16.911,16.911,0,0,0,931.284,295.8Zm-.258,3.261a13.65,13.65,0,1,1-9.94,3.24,13.69,13.69,0,0,1,9.94-3.24m8.858,9.615-1.417-1.667a.805.805,0,0,0-1.152-.1l-10.364,8.8-3.753-4.421a.805.805,0,0,0-1.16-.1l-1.667,1.417a.805.805,0,0,0-.089,1.152l5.693,6.708a.805.805,0,0,0,1.152.1l12.659-10.742a.805.805,0,0,0,.1-1.152Z" transform="translate(-226.832 -108.391)" fill="#3acc6c" opacity="0.7"/>
    </g>
  </g>
</svg>
