<svg xmlns="http://www.w3.org/2000/svg" width="389.039" height="286.017" viewBox="0 0 389.039 286.017"><defs><style>.a{fill:#f1f1f1;}.b{fill:#ffb7b7;}.c{fill:#2f2e41;}.d{fill:#cbcbcb;}.e{fill:#fff;}.f{fill:#e5e5e5;}.g{fill:#6c63ff;}</style></defs><g transform="translate(0 0)"><path class="a" d="M971.738,728.666V696.188S984.4,719.214,971.738,728.666Z" transform="translate(-610.32 -442.65)"/><path class="a" d="M944.115,741.558,920.19,719.594S945.711,725.842,944.115,741.558Z" transform="translate(-581.915 -455.547)"/><path class="b" d="M743.246,561.846a4.084,4.084,0,0,1,4.423-4.432l4.313-8.275,5.668,1.394-6.255,11.6a4.106,4.106,0,0,1-8.149-.288Z" transform="translate(-484.404 -361.621)"/><path class="b" d="M625.208,602.885h-4.783l-2.275-18.448h7.059Z" transform="translate(-340.622 -322.045)"/><path class="c" d="M784.4,759.718H768.977v-.2a6,6,0,0,1,6-6h9.42Z" transform="translate(-498.592 -474.241)"/><path class="b" d="M705.234,595.725l-4.615,1.258-7.049-17.2,6.81-1.857Z" transform="translate(-382.18 -318.457)"/><path class="c" d="M873.04,750.949l-14.878,4.057-.051-.188a6,6,0,0,1,4.212-7.37h0l9.087-2.478Z" transform="translate(-547.59 -469.53)"/><path class="c" d="M611.495,447.057l-2.386,36.229,5.125,40.647,8.394-2.562.354-36.317,6.715-20.942,19.882,55.934,9.1-3.358L651.17,480.37l-4.241-34.108Z" transform="translate(-335.64 -245.905)"/><path class="d" d="M803.463,437.806l-14.136,2.085-5.093,5.036-1.581,18.1.982,16.029-4.094,28.266s10.295-5.715,18.273,1.439,19.142,1.264,19.372-3.495Z" transform="translate(-504.413 -300.272)"/><path class="c" d="M816.834,460.18v-.02l7.022-22.89.091-.006c.5-.033,12.273-.726,14.907,5.087l.013.028-.8,23.788,1.1,37.255-21.775,4.716-.158.034Z" transform="translate(-524.963 -299.95)"/><path class="c" d="M787.645,461.017l1.288-19.4c-9.162.57-9.024,7.066-9.013,7.349l-.1,29.026-1.835,31.052,6.672-.5Z" transform="translate(-503.555 -302.37)"/><path class="c" d="M753.485,527.512l8.134-18.878,5.677-10.426,2.964,18.807-10.291,15.437Z" transform="translate(-490.055 -333.556)"/><path class="b" d="M828.241,536.267a4.083,4.083,0,0,1,5.534-2.93l6.562-6.634,5,3-9.4,9.239a4.106,4.106,0,0,1-7.7-2.679Z" transform="translate(-531.195 -349.258)"/><path class="c" d="M840.651,487.062l13.38-14.678-8.856-12.638.912-6.179,5.22-6.448.1.132c.557.72,13.632,17.707,14.007,24.138.377,6.454-18.417,22.781-19.217,23.473l-.111.1Z" transform="translate(-538.087 -305.405)"/><circle class="b" cx="9.51" cy="9.51" r="9.51" transform="translate(281.383 116.925)"/><path class="c" d="M810.979,389.668l.461-.928-2.32-1.153s-2.559-4.164-7.19-2.994-6.714,1.87-6.714,1.87l-2.314,1.164,1.161,1.155-2.083.7,1.392.691-1.62.931.872,4.772s1.448-3.619,4.232-2.236,7.875-.715,7.875-.715l4.424,8.561s.912-3,2.54-2.2C811.7,399.288,815.852,392.667,810.979,389.668Z" transform="translate(-511.142 -270.836)"/><path class="e" d="M358.971,304.143,214.359,344.026,166.738,171.354l144.613-39.882Z" transform="translate(-166.738 -131.472)"/><path class="a" d="M358.971,304.143,214.359,344.026,166.738,171.354l144.613-39.882ZM216.206,340.771,355.717,302.3,309.5,134.726,169.993,173.2Z" transform="translate(-166.738 -131.472)"/><path class="f" d="M358.875,254.453l-36.25,10a2,2,0,0,1-2.46-1.4l-10-36.25a2,2,0,0,1,1.4-2.46l36.25-10a2,2,0,0,1,2.46,1.4l10,36.25A2,2,0,0,1,358.875,254.453Zm-47.1-29.338a1.2,1.2,0,0,0-.838,1.476l10,36.25a1.2,1.2,0,0,0,1.476.838l36.25-10a1.2,1.2,0,0,0,.838-1.476l-10-36.25a1.2,1.2,0,0,0-1.476-.838Z" transform="translate(-245.733 -177.099)"/><path class="g" d="M338.719,271.209l-36.25,10a1.8,1.8,0,0,1-2.214-1.257l-10-36.25a1.8,1.8,0,0,1,1.257-2.214l36.25-10a1.8,1.8,0,0,1,2.214,1.257l10,36.25A1.8,1.8,0,0,1,338.719,271.209Z" transform="translate(-234.766 -186.548)"/><rect class="a" width="104.936" height="4.055" transform="translate(44.787 117.507) rotate(-15.418)"/><rect class="a" width="104.936" height="4.055" transform="translate(47.598 127.7) rotate(-15.418)"/><rect class="a" width="104.936" height="4.055" transform="translate(50.409 137.892) rotate(-15.418)"/><rect class="a" width="104.936" height="4.055" transform="translate(55.356 155.831) rotate(-15.418)"/><rect class="a" width="104.936" height="4.055" transform="translate(58.167 166.023) rotate(-15.418)"/><rect class="a" width="104.936" height="4.055" transform="translate(60.978 176.216) rotate(-15.418)"/><path class="e" d="M513.9,383.778H363.887V204.661H513.9Z" transform="translate(-275.374 -171.802)"/><path class="f" d="M513.9,383.778H363.887V204.661H513.9Zm-147.366-2.646H511.253V207.307H366.534Z" transform="translate(-275.374 -171.802)"/><rect class="g" width="85.768" height="4.055" transform="translate(125.445 109.86)"/><rect class="g" width="85.768" height="4.055" transform="translate(125.445 120.403)"/><rect class="g" width="85.768" height="4.055" transform="translate(125.445 130.946)"/><circle class="g" cx="2.646" cy="2.646" r="2.646" transform="translate(115.825 109.835)"/><rect class="f" width="85.768" height="4.055" transform="translate(125.445 64.429)"/><rect class="f" width="85.768" height="4.055" transform="translate(125.445 74.972)"/><rect class="f" width="85.768" height="4.055" transform="translate(125.445 85.515)"/><circle class="f" cx="2.646" cy="2.646" r="2.646" transform="translate(115.825 63.963)"/><rect class="f" width="85.768" height="4.055" transform="translate(125.445 155.732)"/><rect class="f" width="85.768" height="4.055" transform="translate(125.445 166.275)"/><rect class="f" width="85.768" height="4.055" transform="translate(125.445 176.818)"/><circle class="f" cx="2.646" cy="2.646" r="2.646" transform="translate(115.825 155.265)"/><circle class="g" cx="30.661" cy="30.661" r="30.661" transform="translate(200.86 166.078)"/><path class="e" d="M675.306,547.693v-5.867a8.495,8.495,0,0,0-16.99,0v5.867a4.417,4.417,0,0,0-4.218,4.41v13.864h25.427V552.1A4.417,4.417,0,0,0,675.306,547.693Zm-8.495-11.37a5.51,5.51,0,0,1,5.5,5.5v5.856H661.308v-5.857A5.51,5.51,0,0,1,666.811,536.323Z" transform="translate(-435.29 -352.91)"/><path class="g" d="M681.9,577.763a2.286,2.286,0,1,0-3.571,1.889v4.968H680.9v-4.968A2.283,2.283,0,0,0,681.9,577.763Z" transform="translate(-448.088 -376.133)"/><path class="d" d="M821.765,767.02H650.709a.449.449,0,0,1,0-.9H821.765a.449.449,0,0,1,0,.9Z" transform="translate(-433.175 -481.185)"/></g></svg>