<svg id="edit" xmlns="http://www.w3.org/2000/svg" width="20.375" height="20.372" viewBox="0 0 20.375 20.372">
  <path id="Path_24" data-name="Path 24" d="M19.055,1.347a4.494,4.494,0,0,0-6.36,0L1.035,13a.583.583,0,0,0-.165.334l-.864,6.4a.581.581,0,0,0,.165.491.593.593,0,0,0,.412.174.472.472,0,0,0,.078,0l3.855-.521a.587.587,0,0,0-.156-1.163l-3.091.417.6-4.463,4.7,4.7a.593.593,0,0,0,.412.174.575.575,0,0,0,.412-.174L19.055,7.707a4.491,4.491,0,0,0,0-6.36ZM12.921,2.779l1.958,1.958L4.239,15.378,2.281,13.42ZM6.987,18.121,5.072,16.207l10.64-10.64,1.914,1.914ZM18.443,6.643,13.759,1.959a3.328,3.328,0,0,1,4.684,4.684Z" transform="translate(0 -0.028)" fill="#fff"/>
</svg>
