<svg xmlns="http://www.w3.org/2000/svg" width="93.215" height="164" viewBox="0 0 93.215 164"><defs><style>.a{fill:#fff;}</style></defs><path class="a" d="M46.6,0A46.6,46.6,0,0,0,0,46.6V157.47a5.18,5.18,0,0,0,4.673,5.139c.167,0,.321.026.5.026H10.65a7.4,7.4,0,1,0,0-14.8h0a7.4,7.4,0,0,0,0-14.8h-.292V115.941a5.18,5.18,0,0,1,10.358,0v32.438a15.368,15.368,0,0,0,.671,3.478,15.557,15.557,0,0,0,30.373-3.832,5.3,5.3,0,0,1,0-1.686,5.248,5.248,0,0,1,10.38.151,5,5,0,0,1,0,1.384v10.987a5.18,5.18,0,0,0,10.358,0v-47.1a5.182,5.182,0,1,1,10.364,0v28.417a5.177,5.177,0,1,0,10.354,0V46.6A46.6,46.6,0,0,0,46.6,0ZM63.555,34.911c4.175,0,7.563,4.146,7.563,9.259s-3.385,9.259-7.563,9.259S56,49.283,56,44.17,59.38,34.911,63.555,34.911ZM40.242,59.689c1.185-3.359,14.452-3.369,15.647,0,.755,2.113-2.749,6.934-7.756,6.976C43.055,66.706,39.5,61.808,40.242,59.689Zm-10.6-24.778c4.175,0,7.56,4.146,7.56,9.259s-3.385,9.259-7.56,9.259-7.567-4.146-7.567-9.259,3.4-9.259,7.576-9.259Zm27.3,96.687A15.557,15.557,0,0,0,41.408,146.35v0a5.537,5.537,0,0,1,0,1.606h0a5.239,5.239,0,1,1-10.335-1.715V104.057a5.18,5.18,0,1,1,10.358,0v17.179a5.177,5.177,0,0,0,10.354,0v-5.3a5.18,5.18,0,1,1,10.358,0V132.5a15.563,15.563,0,0,0-5.2-.906Z" transform="translate(0 0)"/><path class="a" d="M268.076,483.3a5.048,5.048,0,0,1-.061.8h0a5.238,5.238,0,0,1-10.332.112,5.035,5.035,0,0,1,0-1.827,5.238,5.238,0,0,1,10.332.112h0A5.017,5.017,0,0,1,268.076,483.3Z" transform="translate(-174.868 -324.53)"/></svg>